<?xml version="1.0" encoding="UTF-8" standalone="no"?>
<!-- Created with Inkscape (http://www.inkscape.org/) -->

<svg
   version="1.1"
   id="svg1"
   width="1200"
   height="1200"
   viewBox="0 0 1200 1200"
   xml:space="preserve"
   xmlns="http://www.w3.org/2000/svg"><defs
     id="defs1" /><path
     id="path1-69-9"
     style="fill:#ffffff;fill-opacity:1;stroke:none;stroke-width:4.7244;stroke-linejoin:round;stroke-miterlimit:0;stroke-dasharray:none;stroke-opacity:1;paint-order:fill markers stroke"
     d="m 738.13481,244.80176 0.006,0.0801 c -23.27256,-0.86843 -49.8311,4.49581 -80.39454,21.82227 l -0.12109,0.0801 c 3.20821,0.5005 6.40906,1.04547 9.60156,1.63477 5.53081,1.07957 11.03377,2.29218 16.50391,3.63672 4.6861,1.16798 9.34665,2.43258 13.97852,3.79297 -0.9737,1.28068 -1.99998,2.55517 -3.08008,3.82422 -1.08,1.26899 -2.21374,2.53264 -3.39844,3.78906 -1.1911,1.2632 -2.43426,2.51926 -3.72656,3.76953 -1.2922,1.25027 -2.63364,2.49477 -4.02344,3.73242 -1.3898,1.23766 -2.82685,2.46863 -4.31055,3.69336 -1.4837,1.22473 -3.01409,2.44321 -4.58789,3.6543 -3.14765,2.42217 -6.47243,4.8166 -9.95898,7.18359 -3.4867,2.36699 -7.13529,4.70586 -10.93164,7.01563 -3.7963,2.3097 -7.74161,4.59136 -11.81836,6.84179 -4.0769,2.2505 -8.28523,4.47097 -12.61328,6.66016 -4.3281,2.18919 -8.77598,4.34682 -13.32618,6.47266 -4.55005,2.12578 -9.20461,4.21868 -13.94726,6.27929 -4.7428,2.06062 -9.57387,4.08907 -14.48047,6.08203 -4.9067,1.99302 -9.88688,3.95155 -14.92773,5.875 -5.041,1.92351 -10.14287,3.81204 -15.28907,5.66407 -5.14625,1.85197 -10.33819,3.66704 -15.56054,5.44531 -5.2223,1.77826 -10.47519,3.51983 -15.74414,5.22265 -5.269,1.70287 -10.55345,3.3668 -15.83985,4.99219 -5.28635,1.6254 -10.57481,3.21231 -15.84961,4.75781 -10.54975,3.09109 -21.04735,6.02115 -31.375,8.78126 -10.32775,2.76006 -20.48742,5.34897 -30.35937,7.76171 -4.27793,1.04556 -8.24964,1.92416 -12.41016,2.90235 -1.31871,0.31054 -2.5928,0.60846 -3.89844,0.91211 -0.004,8.9e-4 -0.008,9.5e-4 -0.0117,0.002 -4.08922,0.9496 -8.36866,1.99945 -12.31835,2.88086 -9.1826,2.04916 -17.96341,3.91285 -26.22266,5.58203 -8.25935,1.66919 -15.99911,3.14509 -23.10156,4.41797 -7.1025,1.27287 -13.56755,2.34295 -19.2793,3.20312 -5.71185,0.86024 -10.67046,1.51015 -14.75781,1.94141 -2.0107,0.21214 -3.79933,0.36954 -5.36328,0.47266 -1.56324,0.10308 -2.9017,0.15238 -4.01368,0.14843 h -0.002 c -0.0376,1.4e-4 -0.11825,0.01 -0.1543,0.01 -35.66962,-0.2248 -85.93449,23.57032 -90.43359,75.94336 -4.49098,52.27805 34.78347,80.72741 35.75977,83.09961 l 0.0391,-0.0254 2.51367,-22.94922 c 1.38855,-7.46231 3.03271,-14.87668 4.92969,-22.23047 0.7085,-0.1115 7.44004,-1.16313 20.71484,-3.51953 13.94215,-2.4748 34.01269,-6.20244 58.52149,-11.21094 12.2544,-2.5043 25.61966,-5.32986 39.88281,-8.47851 14.2632,-3.1487 29.42539,-6.62138 45.27539,-10.42188 15.85,-3.80045 32.38744,-7.92902 49.40234,-12.38867 17.01495,-4.45972 34.50773,-9.25076 52.26563,-14.37695 12.80145,-3.69544 25.90579,-7.56558 39.11914,-11.66016 13.21345,-4.09458 26.53579,-8.41261 39.77344,-13.00391 6.61875,-2.29558 13.21733,-4.65953 19.76953,-7.09765 6.55215,-2.43812 13.05904,-4.95019 19.49609,-7.54297 6.43705,-2.59278 12.80463,-5.26575 19.07813,-8.02539 6.27355,-2.75965 12.45217,-5.60629 18.51367,-8.54492 6.06145,-2.9387 12.00564,-5.96972 17.80664,-9.09961 5.80105,-3.12995 11.45912,-6.36003 16.95117,-9.69336 5.4921,-3.3334 10.81853,-6.77132 15.95313,-10.32031 5.13465,-3.54902 10.07784,-7.20952 14.80664,-10.98633 4.72865,-3.77687 9.24322,-7.67066 13.51757,-11.6875 4.2744,-4.0169 8.30863,-8.15672 12.08008,-12.42578 3.7716,-4.26913 7.27975,-8.66763 10.5,-13.20118 1.6102,-2.26671 3.14803,-4.56717 4.61133,-6.90234 l 4.15625,-7.18945 c 17.50026,-32.12271 -2.19272,-67.39952 -35.69336,-74.34571 -7.05358,-1.46253 -14.44564,-2.44294 -22.20312,-2.73242 z m -250.36133,18.29688 c -2.8531,0.032 -5.76388,0.14774 -8.72656,0.33984 -2.9627,0.1922 -5.97686,0.46149 -9.03516,0.80469 -3.0584,0.3432 -6.16275,0.75904 -9.30273,1.24414 -3.14,0.4852 -6.31576,1.0401 -9.52344,1.6582 -3.2077,0.6182 -6.44575,1.30078 -9.70703,2.04297 -3.2614,0.7422 -6.54656,1.54329 -9.84766,2.40039 -1.6505,0.42859 -3.26194,0.90815 -4.83594,1.43555 -1.5741,0.5273 -3.11017,1.10181 -4.60937,1.7207 -1.4992,0.6188 -2.96279,1.28323 -4.38867,1.98633 -1.4259,0.7031 -2.81563,1.44646 -4.16993,2.22656 -1.35428,0.78019 -2.67283,1.59543 -3.95703,2.44531 -1.2842,0.8499 -2.53226,1.73409 -3.74804,2.64649 -1.2157,0.9125 -2.39788,1.85448 -3.54688,2.82226 -1.1489,0.9678 -2.26591,1.96067 -3.34961,2.97657 -1.0836,1.0159 -2.1342,2.05453 -3.1543,3.11133 -1.01998,1.05678 -2.00869,2.13216 -2.96679,3.22265 -1.916,2.1808 -3.70912,4.42147 -5.38672,6.69336 -1.6775,2.272 -3.23941,4.57567 -4.69141,6.88086 -1.452,2.3052 -2.79595,4.61198 -4.03515,6.89258 -1.2393,2.2805 -2.37467,4.53433 -3.41407,6.73242 -1.0394,2.198 -1.98158,4.34084 -2.83398,6.39844 -0.8523,2.0577 -1.61477,4.02927 -2.29297,5.88867 -0.6781,1.8594 -1.27226,3.6057 -1.78906,5.20898 -1.0337,3.20649 -1.75726,5.84294 -2.22266,7.67774 -0.4654,1.8348 -0.92578,3.89062 -0.92578,3.89062 0,0 1.5256,-1.15032 3.2793,-2.95312 0.8768,-0.9014 2.32295,-1.9983 3.56445,-3.125 0.41755,-0.37891 1.03951,-0.85962 1.55859,-1.30469 l 0.0176,-0.0137 c 0.2003,-0.18383 0.40082,-0.36742 0.60157,-0.55078 0.34256,-0.27148 0.68566,-0.54231 1.02929,-0.8125 0.0113,-0.009 0.0199,-0.0181 0.0312,-0.0274 0.49643,-0.40425 0.92904,-0.80564 1.39844,-1.16797 1.5571,-1.20178 2.97718,-2.6858 4.80078,-3.8125 0.9118,-0.56338 1.25746,-1.20625 2.22656,-1.72265 0.53645,-0.28581 0.9006,-0.81182 1.43946,-1.09766 l 0.0527,-0.041 c 0.4254,-0.20471 0.83719,-0.42732 1.27149,-0.61914 1.02035,-0.4507 2.0653,-0.86233 3.13085,-1.22852 1.0655,-0.36619 2.15136,-0.68631 3.25586,-0.94922 1.1045,-0.2629 2.22794,-0.46853 3.36524,-0.60937 1.1373,-0.1408 2.28912,-0.2168 3.45312,-0.2168 1.164,0 2.44985,0.0564 3.84375,0.16211 1.394,0.10571 2.89549,0.26086 4.49414,0.45703 3.1974,0.39233 6.78069,0.95069 10.64649,1.61328 7.73135,1.32518 16.59767,3.06848 25.79492,4.74219 4.5986,0.83685 9.27996,1.65562 13.94336,2.39648 4.66325,0.74087 9.30914,1.40303 13.83594,1.92578 2.26335,0.26139 4.4959,0.48789 6.6875,0.67188 2.19145,0.18399 4.34109,0.32667 6.43554,0.41797 2.0946,0.0913 4.13503,0.13183 6.10743,0.11523 1.97225,-0.0166 3.87802,-0.0907 5.70312,-0.23047 1.8251,-0.13978 3.6845,-0.34172 5.56445,-0.60351 1.8801,-0.26179 3.7794,-0.58323 5.6836,-0.9668 1.9042,-0.38356 3.81338,-0.82887 5.71093,-1.33398 1.8976,-0.50511 3.78424,-1.07084 5.64454,-1.69727 1.86025,-0.62642 3.69427,-1.31304 5.48632,-2.06055 1.7922,-0.74747 3.54303,-1.55544 5.23633,-2.42382 1.6932,-0.86838 3.32898,-1.7981 4.89258,-2.78711 1.5636,-0.98901 3.05383,-2.03707 4.45703,-3.14649 1.4031,-1.10941 2.71964,-2.28017 3.93164,-3.50976 1.212,-1.2296 2.32045,-2.51765 3.31055,-3.86719 0.495,-0.67477 0.95888,-1.3656 1.39258,-2.07031 0.4338,-0.70472 0.83648,-1.42357 1.20508,-2.15821 0.3686,-0.73458 0.7042,-1.48547 1.0039,-2.25 0.2997,-0.76447 0.56412,-1.54351 0.79102,-2.33789 0.2269,-0.79438 0.4162,-1.60352 0.5664,-2.42773 0.1503,-0.82421 0.26205,-1.66357 0.33203,-2.51758 0.07,-0.85401 0.096,-1.72168 0.082,-2.60547 -0.0146,-0.88378 -0.071,-1.78373 -0.17383,-2.69726 -0.1027,-0.91353 -0.25051,-1.84191 -0.44531,-2.78516 -0.1947,-0.94325 -0.43597,-1.90011 -0.72657,-2.87305 -0.2907,-0.97293 -0.63118,-1.96224 -1.02148,-2.96484 -0.3904,-1.0026 -0.83032,-2.01855 -1.32422,-3.05078 -0.4939,-1.03223 -1.02093,-2.0329 -1.57813,-3.00195 -0.55705,-0.96911 -1.14507,-1.90735 -1.76367,-2.81446 -0.6187,-0.90711 -1.26701,-1.78266 -1.94531,-2.6289 -0.6784,-0.84624 -1.38665,-1.66272 -2.12305,-2.44922 -0.7364,-0.7865 -1.50232,-1.5436 -2.29492,-2.27149 -0.7926,-0.72788 -1.61188,-1.42725 -2.45898,-2.09765 -0.8471,-0.6704 -1.7212,-1.31174 -2.6211,-1.92578 -0.8998,-0.61405 -1.82449,-1.20096 -2.77539,-1.75977 -0.9508,-0.55881 -1.92763,-1.08904 -2.92773,-1.59375 -0.70278,-0.35463 -1.43185,-0.68139 -2.1582,-1.00977 -0.3068,-0.1388 -0.60121,-0.29168 -0.91211,-0.42578 -2.0952,-0.9035 -4.2839,-1.70209 -6.5586,-2.40039 -2.2748,-0.6983 -4.63587,-1.29673 -7.07617,-1.79883 -2.4403,-0.5022 -4.95888,-0.90755 -7.55078,-1.22265 -2.5918,-0.3151 -5.25683,-0.53878 -7.98633,-0.67578 -2.7295,-0.137 -5.52385,-0.18835 -8.37695,-0.15625 z m 16.88476,29.12304 c 2.90479,2.4e-4 5.25953,2.35498 5.25977,5.25977 -2.5e-4,2.90479 -2.35498,5.25953 -5.25977,5.25976 -2.90477,-2.4e-4 -5.25951,-2.35498 -5.25976,-5.25976 2.4e-4,-2.90479 2.35498,-5.25952 5.25976,-5.25977 z m 372.16602,101.83399 c -1.9525,0.0413 -3.14115,0.16537 -3.36133,0.30859 l 3.31836,4.24414 c 3.35874,4.44329 6.60582,8.96679 9.73828,13.56641 3.13274,4.59983 6.14993,9.27442 9.04883,14.01953 0.34625,0.59598 0.69065,1.19299 1.0332,1.79102 -6.21465,5.29899 -13.40895,11.07874 -21.5039,17.24218 -8.1096,6.17468 -17.11785,12.73095 -26.9336,19.56446 -9.81575,6.83345 -20.4404,13.94519 -31.78125,21.22851 -11.34095,7.28331 -23.39903,14.73942 -36.08398,22.26367 -12.68495,7.5243 -25.99575,15.11768 -39.84375,22.67383 -13.84795,7.55625 -28.2326,15.07593 -43.0625,22.45508 -7.41495,3.6896 -14.94191,7.34312 -22.56836,10.94922 -7.62645,3.6062 -15.35457,7.16541 -23.16992,10.66211 -7.81545,3.49655 -15.71952,6.93197 -23.70117,10.29297 -7.9817,3.36095 -16.04077,6.6465 -24.16602,9.8457 -9.40385,3.7026 -18.90719,7.23285 -28.46484,10.5957 -9.55755,3.3629 -19.16912,6.55946 -28.78907,9.59766 -9.62005,3.0382 -19.24879,5.91803 -28.83984,8.64648 -9.59105,2.7284 -19.14448,5.30463 -28.61523,7.73828 -9.47075,2.4338 -18.85999,4.72491 -28.11914,6.87891 -9.2591,2.1539 -18.38966,4.17145 -27.34571,6.06055 -8.95605,1.8891 -17.73713,3.64976 -26.29883,5.28906 -8.56165,1.6393 -16.90256,3.15615 -24.97851,4.56055 -16.15185,2.80885 -31.2417,5.16379 -44.90235,7.12304 -13.6607,1.9592 -25.89338,3.52441 -36.33203,4.75391 -10.43855,1.2294 -19.08276,2.12269 -25.56836,2.74219 -6.03375,0.5762 -9.73447,0.86928 -11.73632,1.01758 -0.1495,0.0111 -0.75166,0.0672 -0.87696,0.0762 -22.81294,1.636 -46.49124,30.26143 -26.08398,73.55859 21.39206,45.38697 84.38137,54.37601 86.13867,57.27539 l 0.0547,-0.0351 c -4.51088,-5.94724 -8.82115,-12.03842 -12.92383,-18.26368 -2.23759,-3.83954 -4.39816,-7.72181 -6.48047,-11.64453 0.5833,-0.07 11.87796,-1.41649 32.16016,-4.46289 10.39725,-1.5617 22.95043,-3.54104 37.21093,-5.96484 14.26055,-2.4239 30.22935,-5.29256 47.4629,-8.63281 8.61675,-1.6701 17.55074,-3.45789 26.74414,-5.36719 9.19345,-1.9094 18.64663,-3.94035 28.30468,-6.0957 9.65815,-2.1555 19.52136,-4.43741 29.53321,-6.84571 10.01185,-2.4082 20.17143,-4.94343 30.42578,-7.61133 10.25435,-2.66785 20.60273,-5.46814 30.98828,-8.40234 10.38545,-2.9343 20.80949,-6.00344 31.21484,-9.21094 10.40545,-3.20735 20.79337,-6.55176 31.10742,-10.03906 10.31395,-3.4874 20.55467,-7.11657 30.66602,-10.89062 8.63045,-3.2214 17.17579,-6.59797 25.61914,-10.10157 8.44335,-3.50355 16.78531,-7.13593 25.00586,-10.86718 8.22045,-3.7312 16.3193,-7.56245 24.28125,-11.4668 7.96195,-3.9043 15.78733,-7.8813 23.45508,-11.9043 7.66785,-4.02275 15.17948,-8.09088 22.51758,-12.17773 7.33795,-4.0868 14.50201,-8.19277 21.47461,-12.28907 6.97255,-4.09615 13.75276,-8.18337 20.32421,-12.23437 6.5715,-4.0511 12.93371,-8.06628 19.06836,-12.01758 12.26935,-7.90245 23.63091,-15.55051 33.93946,-22.72656 10.30835,-7.17595 19.5647,-13.87968 27.62695,-19.89258 8.06225,-6.01295 14.93004,-11.33475 20.46094,-15.74805 5.53065,-4.41325 9.72515,-7.91792 12.43945,-10.29492 0.1404,-0.12293 0.24752,-0.24622 0.38672,-0.36914 l -0.01,-0.0937 -0.006,-0.33789 -0.002,-0.0801 0.084,0.36328 c 46.55317,-41.14805 32.08019,-82.09825 23.21289,-97.30859 -17.76918,-30.48049 -68.83053,-34.29718 -82.49805,-34.00781 z m 66.34961,236.67578 -1.125,8.67187 c -0.28,2.90757 -0.59838,5.81146 -0.95508,8.71094 -0.19507,1.09015 -0.39559,2.17936 -0.60156,3.26758 l -0.002,0.0156 -0.42187,3.25585 c 0,0 -0.20358,0.15305 -0.20508,0.1543 -0.1479,0.1167 -6.97447,5.51029 -19.10742,14.39649 -6.13135,4.49075 -13.56617,9.83526 -22.07422,15.76171 -8.50795,5.9264 -18.08892,12.43552 -28.51367,19.25782 -10.42485,6.82235 -21.69392,13.95812 -33.57617,21.13672 -5.9411,3.58915 -12.03651,7.18852 -18.25586,10.76562 -6.2193,3.5771 -12.5619,7.13151 -19.00195,10.62891 -6.4401,3.49735 -12.97673,6.93876 -19.58008,10.28906 -6.6033,3.3503 -13.27518,6.61044 -19.98438,9.74609 -6.70915,3.1357 -13.45729,6.14645 -20.21484,9 -6.7576,2.8537 -13.52489,5.55059 -20.27344,8.05469 -13.49715,5.0082 -26.49243,9.63041 -38.98828,13.91211 -12.49585,4.2818 -24.49153,8.22159 -35.98828,11.86719 -11.49675,3.64555 -22.49449,6.996 -32.99414,10.0957 -10.49975,3.0998 -20.50282,5.94965 -30.00782,8.59375 -19.0098,5.2882 -36.03282,9.75642 -51.07617,13.76367 -7.52165,2.0037 -14.54863,3.89204 -21.08203,5.71094 -6.53325,1.8188 -12.57204,3.56672 -18.11914,5.29102 -2.7735,0.86205 -5.67876,1.90146 -8.69336,3.10156 -3.0145,1.2 -6.13821,2.56171 -9.34961,4.07031 -3.21125,1.5085 -6.511,3.16347 -9.875,4.95117 -3.36385,1.7878 -6.79337,3.7085 -10.26562,5.7461 -3.4723,2.03765 -6.98704,4.19297 -10.52344,6.45117 -3.5365,2.2582 -7.09399,4.61896 -10.65039,7.06836 -2.6825,1.8474 -5.35569,3.78887 -8.02734,5.73047 -32.75034,23.80039 -63.99044,54.15554 -76.22852,79.5625 -8.59128,17.83599 -14.69277,34.66255 -5.80859,39.45115 9.14448,4.9288 71.33179,-67.11687 129.57617,-95.86131 0.3997,-0.1973 0.80372,-0.45143 1.20312,-0.64453 4.5067,-2.1798 8.98782,-4.0938 13.41602,-5.6875 2.2141,-0.7969 4.41511,-1.51328 6.59961,-2.14258 2.1845,-0.6294 4.3517,-1.17124 6.5,-1.61914 2.1483,-0.4479 4.27731,-0.80219 6.38281,-1.05469 2.1055,-0.2524 4.18804,-0.40426 6.24414,-0.44726 4.198,-0.0878 10.02343,-0.36808 17.17578,-0.86328 7.1525,-0.4952 15.63143,-1.20534 25.14258,-2.14844 9.51115,-0.9432 20.05398,-2.11928 31.32813,-3.55078 11.2742,-1.4316 23.2811,-3.11773 35.72265,-5.07813 12.44155,-1.9605 25.31893,-4.19676 38.33203,-6.72656 6.5066,-1.2649 13.04619,-2.60268 19.58399,-4.01758 6.53785,-1.4148 13.07376,-2.90676 19.56836,-4.47656 6.49455,-1.5699 12.94932,-3.21737 19.32617,-4.94727 6.37695,-1.7299 12.67472,-3.5425 18.85937,-5.4375 6.1848,-1.89505 12.25578,-3.8723 18.17383,-5.9375 5.9182,-2.06525 11.68467,-4.21848 17.26172,-6.45898 5.577,-2.2405 11.50828,-4.67829 17.70508,-7.30469 6.19675,-2.6264 12.65857,-5.43984 19.29492,-8.43359 6.63625,-2.9938 13.4482,-6.16717 20.34375,-9.50977 6.89555,-3.34265 13.87496,-6.85634 20.84961,-10.52929 6.97465,-3.6731 13.94491,-7.50524 20.81836,-11.49024 1.9593,-1.1358 3.82793,-2.37496 5.76953,-3.53516 72.98676,-43.61447 132.12621,-104.20787 66.39258,-170.57812 z" /><path
     id="path23-15"
     style="fill:#000000;fill-opacity:1;stroke:none;stroke-width:5.1582;stroke-linejoin:round;stroke-miterlimit:0;stroke-dasharray:none;stroke-opacity:1;paint-order:fill markers stroke"
     d="M 600 261.92383 A 344.60056 338.0773 0 0 0 575.41602 262.78516 A 344.60056 338.0773 0 0 0 550.95703 265.36523 A 344.60056 338.0773 0 0 0 526.74805 269.65039 A 344.60056 338.0773 0 0 0 526.23242 269.77734 C 526.95932 270.10596 527.68928 270.43417 528.39258 270.78906 C 529.39268 271.29377 530.36951 271.824 531.32031 272.38281 C 532.27121 272.94162 533.1959 273.52853 534.0957 274.14258 C 534.9956 274.75662 535.8697 275.39796 536.7168 276.06836 C 537.5639 276.73876 538.38318 277.43814 539.17578 278.16602 C 539.96838 278.8939 540.7343 279.651 541.4707 280.4375 C 542.2071 281.224 542.91535 282.04048 543.59375 282.88672 C 544.27205 283.73296 544.92036 284.60852 545.53906 285.51562 C 546.15766 286.42273 546.74566 287.36097 547.30273 288.33008 C 547.85993 289.29915 548.38696 290.2998 548.88086 291.33203 C 549.37476 292.36426 549.81468 293.38021 550.20508 294.38281 C 550.59538 295.38541 550.93586 296.37473 551.22656 297.34766 C 551.51716 298.3206 551.75843 299.27745 551.95312 300.2207 C 552.14792 301.16395 552.29574 302.09233 552.39844 303.00586 C 552.50124 303.91939 552.55767 304.81935 552.57227 305.70312 C 552.58627 306.58691 552.56023 307.45458 552.49023 308.30859 C 552.42023 309.1626 552.3085 310.00196 552.1582 310.82617 C 552.008 311.65038 551.8187 312.45953 551.5918 313.25391 C 551.3649 314.04829 551.10048 314.82535 550.80078 315.58984 C 550.50108 316.35437 550.16547 317.10524 549.79688 317.83984 C 549.42828 318.57448 549.0256 319.29528 548.5918 320 C 548.1581 320.70471 547.69422 321.39554 547.19922 322.07031 C 546.20912 323.41985 545.10067 324.7079 543.88867 325.9375 C 542.67667 327.16709 541.36013 328.33786 539.95703 329.44727 C 538.55383 330.55668 537.0636 331.60474 535.5 332.59375 C 533.9364 333.58276 532.30062 334.51248 530.60742 335.38086 C 528.91412 336.24924 527.16329 337.05525 525.37109 337.80273 C 523.57903 338.55024 521.74503 339.23882 519.88477 339.86523 C 518.02447 340.49166 516.13783 341.05739 514.24023 341.5625 C 512.34267 342.06761 510.43349 342.51292 508.5293 342.89648 C 506.6251 343.28005 504.7258 343.60149 502.8457 343.86328 C 500.96574 344.12507 499.10635 344.32506 497.28125 344.46484 C 495.45615 344.60463 493.55039 344.68067 491.57812 344.69727 C 489.60573 344.71387 487.5653 344.67336 485.4707 344.58203 C 483.37624 344.49073 481.22662 344.34805 479.03516 344.16406 C 476.84356 343.98007 474.61102 343.75162 472.34766 343.49023 C 467.82086 342.96746 463.17498 342.30728 458.51172 341.56641 C 453.84832 340.82555 449.16695 340.00677 444.56836 339.16992 C 435.3711 337.49621 426.5048 335.75291 418.77344 334.42773 C 414.90764 333.76515 411.32435 333.20678 408.12695 332.81445 C 406.52828 332.61828 405.02681 332.46313 403.63281 332.35742 C 402.23891 332.25171 400.95306 332.19531 399.78906 332.19531 C 398.62506 332.19531 397.47324 332.27131 396.33594 332.41211 C 395.19864 332.55295 394.0752 332.75858 392.9707 333.02148 C 391.8662 333.28439 390.78034 333.60451 389.71484 333.9707 C 388.64927 334.33689 387.60435 334.74852 386.58398 335.19922 C 386.14968 335.39104 385.7379 335.61365 385.3125 335.81836 A 344.60056 338.0773 0 0 0 374.33398 344.5 A 344.60056 338.0773 0 0 0 356.33008 360.94531 A 344.60056 338.0773 0 0 0 339.56836 378.60742 A 344.60056 338.0773 0 0 0 324.72266 396.73047 A 344.60056 338.0773 0 0 0 311.18164 415.80859 C 312.29394 415.81259 313.63327 415.76524 315.19727 415.66211 C 316.76123 415.55899 318.54985 415.40159 320.56055 415.18945 C 324.64791 414.75819 329.6065 414.10633 335.31836 413.24609 C 341.03012 412.3859 347.49516 411.31779 354.59766 410.04492 C 361.70012 408.77204 369.43986 407.29614 377.69922 405.62695 C 385.95848 403.95777 394.73928 402.09408 403.92188 400.04492 C 413.10444 397.99576 422.68849 395.76046 432.56055 393.34766 C 442.43251 390.9349 452.59216 388.34601 462.91992 385.58594 C 473.24758 382.82583 483.74516 379.89382 494.29492 376.80273 C 499.56972 375.25722 504.85817 373.67227 510.14453 372.04688 C 515.43093 370.42149 520.71538 368.7556 525.98438 367.05273 C 531.25334 365.3499 536.50622 363.61029 541.72852 361.83203 C 546.95088 360.05376 552.1428 358.23871 557.28906 356.38672 C 562.43526 354.53469 567.53713 352.64616 572.57812 350.72266 C 577.61899 348.79919 582.59916 346.84067 587.50586 344.84766 C 592.41245 342.85468 597.24353 340.82624 601.98633 338.76562 C 606.72899 336.70502 611.38353 334.61213 615.93359 332.48633 C 620.48379 330.36049 624.93167 328.20286 629.25977 326.01367 C 633.58783 323.82448 637.79615 321.60401 641.87305 319.35352 C 645.94981 317.10307 649.89511 314.82144 653.69141 312.51172 C 657.48777 310.20195 661.13635 307.86308 664.62305 305.49609 C 668.10961 303.12911 671.43436 300.73467 674.58203 298.3125 C 676.15583 297.10141 677.68622 295.88293 679.16992 294.6582 C 680.65362 293.43347 682.09067 292.2025 683.48047 290.96484 C 684.87027 289.72719 686.21171 288.48269 687.50391 287.23242 C 688.7962 285.98215 690.03937 284.72609 691.23047 283.46289 C 692.41517 282.20647 693.54891 280.94284 694.62891 279.67383 C 695.70901 278.40478 696.73529 277.13029 697.70898 275.84961 A 344.60056 338.0773 0 0 0 683.73047 272.05664 A 344.60056 338.0773 0 0 0 667.22656 268.41992 A 344.60056 338.0773 0 0 0 650.5625 265.58398 A 344.60056 338.0773 0 0 0 633.77539 263.55273 A 344.60056 338.0773 0 0 0 616.9082 262.33203 A 344.60056 338.0773 0 0 0 600 261.92383 z M 504.6582 292.22266 A 5.260211 5.260211 0 0 0 499.39844 297.48242 A 5.260211 5.260211 0 0 0 504.6582 302.74023 A 5.260211 5.260211 0 0 0 509.91797 297.48242 A 5.260211 5.260211 0 0 0 504.6582 292.22266 z M 795.99023 322.04102 C 794.69307 324.41822 793.3217 326.76145 791.875 329.07031 C 790.4117 331.40548 788.87387 333.70593 787.26367 335.97266 C 784.04341 340.5062 780.53527 344.9047 776.76367 349.17383 C 772.99221 353.4429 768.95799 357.58271 764.68359 361.59961 C 760.40923 365.61647 755.89468 369.51024 751.16602 373.28711 C 746.43722 377.06394 741.49404 380.72442 736.35938 384.27344 C 731.22478 387.82244 725.89834 391.26035 720.40625 394.59375 C 714.91419 397.9271 709.25614 401.15716 703.45508 404.28711 C 697.65408 407.41702 691.7099 410.44802 685.64844 413.38672 C 679.58694 416.32537 673.40833 419.17199 667.13477 421.93164 C 660.86127 424.69128 654.4937 427.36425 648.05664 429.95703 C 641.61958 432.54981 635.11271 435.06188 628.56055 437.5 C 622.00835 439.93812 615.40978 442.30206 608.79102 444.59766 C 595.55336 449.18895 582.23103 453.50699 569.01758 457.60156 C 555.80422 461.69614 542.69989 465.56628 529.89844 469.26172 C 512.14052 474.38792 494.64777 479.17896 477.63281 483.63867 C 460.61789 488.09834 444.08049 492.22688 428.23047 496.02734 C 412.38044 499.82784 397.2183 503.30052 382.95508 506.44922 C 368.69192 509.59789 355.32669 512.42344 343.07227 514.92773 C 318.56345 519.93623 298.49294 523.66387 284.55078 526.13867 C 271.27595 528.49507 264.54444 529.5467 263.83594 529.6582 A 344.60056 338.0773 0 0 0 258.90625 551.88867 A 344.60056 338.0773 0 0 0 255.39844 600.00195 A 344.60056 338.0773 0 0 0 258.90625 648.11523 A 344.60056 338.0773 0 0 0 263.79688 670.16797 C 265.79874 670.01967 269.49944 669.72659 275.5332 669.15039 C 282.0188 668.53089 290.663 667.6376 301.10156 666.4082 C 311.54022 665.1787 323.77287 663.61154 337.43359 661.65234 C 351.09425 659.69308 366.18408 657.34012 382.33594 654.53125 C 390.4119 653.12685 398.75279 651.61 407.31445 649.9707 C 415.87614 648.3314 424.65722 646.57074 433.61328 644.68164 C 442.56934 642.79254 451.69989 640.77499 460.95898 638.62109 C 470.21815 636.4671 479.60736 634.17403 489.07812 631.74023 C 498.54889 629.30657 508.1023 626.7323 517.69336 624.00391 C 527.28442 621.27544 536.91314 618.39562 546.5332 615.35742 C 556.15316 612.31922 565.76471 609.12266 575.32227 605.75977 C 584.87993 602.3969 594.38325 598.86666 603.78711 595.16406 C 611.91237 591.96487 619.97143 588.67933 627.95312 585.31836 C 635.93479 581.95736 643.83883 578.52196 651.6543 575.02539 C 659.46966 571.52869 667.19776 567.96948 674.82422 564.36328 C 682.45068 560.75718 689.97762 557.10366 697.39258 553.41406 C 712.2225 546.0349 726.60712 538.51525 740.45508 530.95898 C 754.3031 523.40282 767.61387 515.80945 780.29883 508.28516 C 792.98379 500.76089 805.04185 493.30481 816.38281 486.02148 C 827.72367 478.73815 838.3483 471.62643 848.16406 464.79297 C 857.97982 457.95947 866.98806 451.40319 875.09766 445.22852 C 883.19262 439.06506 890.3869 433.28533 896.60156 427.98633 A 344.60056 338.0773 0 0 0 895.56836 426.19531 A 344.60056 338.0773 0 0 0 886.51953 412.17578 A 344.60056 338.0773 0 0 0 876.78125 398.60938 A 344.60056 338.0773 0 0 0 866.375 385.52734 A 344.60056 338.0773 0 0 0 855.32812 372.96289 A 344.60056 338.0773 0 0 0 843.66406 360.94531 A 344.60056 338.0773 0 0 0 831.41406 349.50195 A 344.60056 338.0773 0 0 0 818.60742 338.66406 A 344.60056 338.0773 0 0 0 805.27344 328.45508 A 344.60056 338.0773 0 0 0 795.99023 322.04102 z M 936.02539 525.00781 L 936.02734 525.08984 L 936.0332 525.42773 L 936.04297 525.52148 C 935.90407 525.64405 935.79625 525.76607 935.65625 525.88867 C 932.94195 528.26567 928.74746 531.77033 923.2168 536.18359 C 917.6859 540.59689 910.81812 545.91868 902.75586 551.93164 C 894.6936 557.94453 885.43727 564.64826 875.12891 571.82422 C 864.82035 579.00028 853.45881 586.64832 841.18945 594.55078 C 835.05479 598.50208 828.69259 602.51726 822.12109 606.56836 C 815.54963 610.61936 808.76944 614.70657 801.79688 618.80273 C 794.82428 622.89903 787.66023 627.005 780.32227 631.0918 C 772.98417 635.17866 765.47255 639.24677 757.80469 643.26953 C 750.13693 647.29253 742.31157 651.26953 734.34961 655.17383 C 726.38765 659.07819 718.28882 662.90943 710.06836 666.64062 C 701.8478 670.37189 693.50586 674.00425 685.0625 677.50781 C 676.61914 681.01141 668.07382 684.38798 659.44336 687.60938 C 649.332 691.38344 639.0913 695.0126 628.77734 698.5 C 618.46328 701.9873 608.07538 705.3317 597.66992 708.53906 C 587.26456 711.74656 576.84054 714.8157 566.45508 717.75 C 556.06952 720.6842 545.72116 723.48448 535.4668 726.15234 C 525.21244 728.82024 515.05288 731.35547 505.04102 733.76367 C 495.02916 736.17197 485.16597 738.45388 475.50781 740.60938 C 465.84975 742.76474 456.39659 744.79568 447.20312 746.70508 C 438.00973 748.61438 429.07575 750.40217 420.45898 752.07227 C 403.22543 755.41253 387.25665 758.28118 372.99609 760.70508 C 358.73557 763.12888 346.18242 765.10822 335.78516 766.66992 C 315.50294 769.71632 304.2083 771.06281 303.625 771.13281 A 344.60056 338.0773 0 0 0 310.10547 782.77734 A 344.60056 338.0773 0 0 0 324.13477 802.60156 A 344.60056 338.0773 0 0 0 339.57031 821.39258 A 344.60056 338.0773 0 0 0 356.33203 839.05664 A 344.60056 338.0773 0 0 0 374.33594 855.50195 A 344.60056 338.0773 0 0 0 393.49023 870.64453 A 344.60056 338.0773 0 0 0 413.69531 884.4082 A 344.60056 338.0773 0 0 0 423.64062 890.19727 C 426.31229 888.25567 428.98547 886.3142 431.66797 884.4668 C 435.22437 882.0174 438.78186 879.65664 442.31836 877.39844 C 445.85476 875.14024 449.3695 872.98493 452.8418 870.94727 C 456.31406 868.90967 459.74356 866.98897 463.10742 865.20117 C 466.47142 863.41347 469.77116 861.7585 472.98242 860.25 C 476.19382 858.7414 479.31753 857.37969 482.33203 856.17969 C 485.34663 854.97959 488.25189 853.94019 491.02539 853.07812 C 496.57249 851.35383 502.61127 849.60591 509.14453 847.78711 C 515.67792 845.96821 522.7049 844.07987 530.22656 842.07617 C 545.26992 838.06891 562.29291 833.60069 581.30273 828.3125 C 590.80772 825.6684 600.81079 822.81855 611.31055 819.71875 C 621.81021 816.61905 632.80793 813.26861 644.30469 809.62305 C 655.80145 805.97745 667.79711 802.03766 680.29297 797.75586 C 692.78883 793.47416 705.78409 788.85194 719.28125 783.84375 C 726.02981 781.33965 732.79709 778.64276 739.55469 775.78906 C 746.31225 772.9355 753.06037 769.92476 759.76953 766.78906 C 766.47872 763.6534 773.15061 760.39327 779.75391 757.04297 C 786.35727 753.69267 792.89389 750.25127 799.33398 746.75391 C 805.77405 743.25651 812.11664 739.7021 818.33594 736.125 C 824.5553 732.5479 830.6507 728.94854 836.5918 725.35938 C 848.47405 718.18078 859.74311 711.04502 870.16797 704.22266 C 880.59273 697.40036 890.17368 690.89124 898.68164 684.96484 C 907.1897 679.03838 914.6245 673.69389 920.75586 669.20312 C 932.88882 660.31693 939.71538 654.92334 939.86328 654.80664 A 344.60056 338.0773 0 0 0 941.09375 648.11328 A 344.60056 338.0773 0 0 0 943.72266 624.11719 A 344.60056 338.0773 0 0 0 944.60156 600 A 344.60056 338.0773 0 0 0 944.60156 599.99023 A 344.60056 338.0773 0 0 0 944.60156 599.98047 A 344.60056 338.0773 0 0 0 944.60156 599.9707 A 344.60056 338.0773 0 0 0 944.60156 599.95898 A 344.60056 338.0773 0 0 0 944.60156 599.94727 A 344.60056 338.0773 0 0 0 944.60156 599.9375 A 344.60056 338.0773 0 0 0 944.60156 599.92773 A 344.60056 338.0773 0 0 0 944.60156 599.91797 A 344.60056 338.0773 0 0 0 944.60156 599.9082 A 344.60056 338.0773 0 0 0 944.60156 599.89844 A 344.60056 338.0773 0 0 0 944.60156 599.88672 A 344.60056 338.0773 0 0 0 944.60156 599.875 A 344.60056 338.0773 0 0 0 944.60156 599.86523 A 344.60056 338.0773 0 0 0 944.60156 599.85352 A 344.60056 338.0773 0 0 0 944.60156 599.84375 A 344.60056 338.0773 0 0 0 944.60156 599.83398 A 344.60056 338.0773 0 0 0 944.60156 599.82422 A 344.60056 338.0773 0 0 0 944.60156 599.81445 A 344.60056 338.0773 0 0 0 944.60156 599.80469 A 344.60056 338.0773 0 0 0 944.60156 599.79492 A 344.60056 338.0773 0 0 0 944.60156 599.7832 A 344.60056 338.0773 0 0 0 944.60156 599.77344 A 344.60056 338.0773 0 0 0 944.60156 599.76172 A 344.60056 338.0773 0 0 0 944.60156 599.75 A 344.60056 338.0773 0 0 0 944.60156 599.74023 A 344.60056 338.0773 0 0 0 944.60156 599.73047 A 344.60056 338.0773 0 0 0 944.60156 599.7207 A 344.60056 338.0773 0 0 0 944.60156 599.71094 A 344.60056 338.0773 0 0 0 944.60156 599.69922 A 344.60056 338.0773 0 0 0 944.60156 599.68945 A 344.60056 338.0773 0 0 0 944.60156 599.67773 A 344.60056 338.0773 0 0 0 944.60156 599.66797 A 344.60056 338.0773 0 0 0 944.60156 599.6582 A 344.60056 338.0773 0 0 0 944.60156 599.64648 A 344.60056 338.0773 0 0 0 944.60156 599.63672 A 344.60056 338.0773 0 0 0 944.60156 599.62695 A 344.60056 338.0773 0 0 0 944.60156 599.61523 A 344.60056 338.0773 0 0 0 944.60156 599.60547 A 344.60056 338.0773 0 0 0 944.60156 599.5957 A 344.60056 338.0773 0 0 0 944.60156 599.58398 A 344.60056 338.0773 0 0 0 944.60156 599.57422 A 344.60056 338.0773 0 0 0 944.60156 599.56445 A 344.60056 338.0773 0 0 0 944.60156 599.55469 A 344.60056 338.0773 0 0 0 944.60156 599.54492 A 344.60056 338.0773 0 0 0 944.60156 599.5332 A 344.60056 338.0773 0 0 0 944.60156 599.52148 A 344.60056 338.0773 0 0 0 944.60156 599.51172 A 344.60056 338.0773 0 0 0 944.60156 599.50195 A 344.60056 338.0773 0 0 0 944.60156 599.49219 A 344.60056 338.0773 0 0 0 944.60156 599.48242 A 344.60056 338.0773 0 0 0 944.60156 599.47266 A 344.60056 338.0773 0 0 0 944.60156 599.46289 A 344.60056 338.0773 0 0 0 944.60156 599.44922 A 344.60056 338.0773 0 0 0 944.60156 599.43945 A 344.60056 338.0773 0 0 0 944.60156 599.42773 A 344.60056 338.0773 0 0 0 944.60156 599.41797 A 344.60056 338.0773 0 0 0 944.60156 599.4082 A 344.60056 338.0773 0 0 0 944.60156 599.39648 A 344.60056 338.0773 0 0 0 944.60156 599.38672 A 344.60056 338.0773 0 0 0 944.60156 599.37695 A 344.60056 338.0773 0 0 0 944.60156 599.36523 A 344.60056 338.0773 0 0 0 944.60156 599.35547 A 344.60056 338.0773 0 0 0 944.60156 599.3457 A 344.60056 338.0773 0 0 0 944.60156 599.33594 A 344.60056 338.0773 0 0 0 944.60156 599.32422 A 344.60056 338.0773 0 0 0 944.60156 599.31445 A 344.60056 338.0773 0 0 0 944.60156 599.30469 A 344.60056 338.0773 0 0 0 944.60156 599.29492 A 344.60056 338.0773 0 0 0 944.60156 599.28516 A 344.60056 338.0773 0 0 0 944.60156 599.27344 A 344.60056 338.0773 0 0 0 944.60156 599.26367 A 344.60056 338.0773 0 0 0 944.60156 599.25195 A 344.60056 338.0773 0 0 0 944.60156 599.24219 A 344.60056 338.0773 0 0 0 944.60156 599.23242 A 344.60056 338.0773 0 0 0 944.60156 599.22266 A 344.60056 338.0773 0 0 0 944.60156 599.21094 A 344.60056 338.0773 0 0 0 944.60156 599.19922 A 344.60056 338.0773 0 0 0 944.60156 599.1875 A 344.60056 338.0773 0 0 0 944.60156 599.17773 A 344.60056 338.0773 0 0 0 944.60156 599.16797 A 344.60056 338.0773 0 0 0 944.60156 599.1582 A 344.60056 338.0773 0 0 0 944.60156 599.14648 A 344.60056 338.0773 0 0 0 944.60156 599.13672 A 344.60056 338.0773 0 0 0 944.60156 599.125 A 344.60056 338.0773 0 0 0 944.60156 599.11328 A 344.60056 338.0773 0 0 0 944.60156 599.10352 A 344.60056 338.0773 0 0 0 944.60156 599.09375 A 344.60056 338.0773 0 0 0 944.60156 599.08398 A 344.60056 338.0773 0 0 0 944.60156 599.07422 A 344.60056 338.0773 0 0 0 944.60156 599.0625 A 344.60056 338.0773 0 0 0 944.60156 599.05273 A 344.60056 338.0773 0 0 0 944.60156 599.04102 A 344.60056 338.0773 0 0 0 944.60156 599.02734 A 344.60056 338.0773 0 0 0 944.60156 599.01758 A 344.60056 338.0773 0 0 0 944.60156 599.00781 A 344.60056 338.0773 0 0 0 944.60156 598.99805 A 344.60056 338.0773 0 0 0 944.60156 598.98828 A 344.60056 338.0773 0 0 0 944.60156 598.97852 A 344.60056 338.0773 0 0 0 944.60156 598.96875 A 344.60056 338.0773 0 0 0 944.60156 598.95703 A 344.60056 338.0773 0 0 0 944.60156 598.94727 A 344.60056 338.0773 0 0 0 944.60156 598.93359 A 344.60056 338.0773 0 0 0 944.60156 598.92188 A 344.60056 338.0773 0 0 0 944.60156 598.91211 A 344.60056 338.0773 0 0 0 944.60156 598.90234 A 344.60056 338.0773 0 0 0 944.60156 598.89258 A 344.60056 338.0773 0 0 0 944.60156 598.88281 A 344.60056 338.0773 0 0 0 944.60156 598.87305 A 344.60056 338.0773 0 0 0 944.60156 598.86328 A 344.60056 338.0773 0 0 0 944.60156 598.85156 A 344.60056 338.0773 0 0 0 944.60156 598.83984 A 344.60056 338.0773 0 0 0 944.60156 598.82812 A 344.60056 338.0773 0 0 0 944.60156 598.81836 A 344.60056 338.0773 0 0 0 944.60156 598.80859 A 344.60056 338.0773 0 0 0 944.60156 598.79883 A 344.60056 338.0773 0 0 0 944.60156 598.78906 A 344.60056 338.0773 0 0 0 944.60156 598.7793 A 344.60056 338.0773 0 0 0 944.60156 598.76758 A 344.60056 338.0773 0 0 0 944.60156 598.75781 A 344.60056 338.0773 0 0 0 944.60156 598.74609 A 344.60056 338.0773 0 0 0 944.60156 598.73633 A 344.60056 338.0773 0 0 0 944.60156 598.72461 A 344.60056 338.0773 0 0 0 944.60156 598.71484 A 344.60056 338.0773 0 0 0 944.60156 598.70312 A 344.60056 338.0773 0 0 0 944.60156 598.69336 A 344.60056 338.0773 0 0 0 944.60156 598.68164 A 344.60056 338.0773 0 0 0 944.60156 598.67188 A 344.60056 338.0773 0 0 0 944.60156 598.66211 A 344.60056 338.0773 0 0 0 944.60156 598.65039 A 344.60056 338.0773 0 0 0 944.60156 598.64062 A 344.60056 338.0773 0 0 0 944.60156 598.63086 A 344.60056 338.0773 0 0 0 944.60156 598.61914 A 344.60056 338.0773 0 0 0 944.60156 598.60938 A 344.60056 338.0773 0 0 0 944.60156 598.59766 A 344.60056 338.0773 0 0 0 944.60156 598.58789 A 344.60056 338.0773 0 0 0 944.60156 598.57812 A 344.60056 338.0773 0 0 0 944.60156 598.56641 A 344.60056 338.0773 0 0 0 944.60156 598.55664 A 344.60056 338.0773 0 0 0 944.60156 598.54688 A 344.60056 338.0773 0 0 0 944.60156 598.53516 A 344.60056 338.0773 0 0 0 944.60156 598.52539 A 344.60056 338.0773 0 0 0 944.60156 598.51367 A 344.60056 338.0773 0 0 0 944.60156 598.50391 A 344.60056 338.0773 0 0 0 944.60156 598.49414 A 344.60056 338.0773 0 0 0 944.60156 598.48438 A 344.60056 338.0773 0 0 0 944.60156 598.47461 A 344.60056 338.0773 0 0 0 944.60156 598.46289 A 344.60056 338.0773 0 0 0 944.60156 598.45117 A 344.60056 338.0773 0 0 0 944.60156 598.44141 A 344.60056 338.0773 0 0 0 944.60156 598.42773 A 344.60056 338.0773 0 0 0 944.60156 598.41797 A 344.60056 338.0773 0 0 0 944.60156 598.4082 A 344.60056 338.0773 0 0 0 944.60156 598.39844 A 344.60056 338.0773 0 0 0 944.60156 598.38867 A 344.60056 338.0773 0 0 0 944.60156 598.37891 A 344.60056 338.0773 0 0 0 944.60156 598.36719 A 344.60056 338.0773 0 0 0 944.60156 598.35742 A 344.60056 338.0773 0 0 0 944.60156 598.3457 A 344.60056 338.0773 0 0 0 944.60156 598.33594 A 344.60056 338.0773 0 0 0 944.60156 598.32422 A 344.60056 338.0773 0 0 0 944.60156 598.3125 A 344.60056 338.0773 0 0 0 944.60156 598.30273 A 344.60056 338.0773 0 0 0 944.60156 598.29297 A 344.60056 338.0773 0 0 0 944.60156 598.2832 A 344.60056 338.0773 0 0 0 944.60156 598.27344 A 344.60056 338.0773 0 0 0 944.60156 598.26172 A 344.60056 338.0773 0 0 0 944.60156 598.25195 A 344.60056 338.0773 0 0 0 944.60156 598.24219 A 344.60056 338.0773 0 0 0 944.60156 598.23047 A 344.60056 338.0773 0 0 0 944.60156 598.2207 A 344.60056 338.0773 0 0 0 944.60156 598.20898 A 344.60056 338.0773 0 0 0 944.60156 598.19922 A 344.60056 338.0773 0 0 0 944.60156 598.1875 A 344.60056 338.0773 0 0 0 944.60156 598.17578 A 344.60056 338.0773 0 0 0 944.60156 598.16602 A 344.60056 338.0773 0 0 0 944.60156 598.15625 A 344.60056 338.0773 0 0 0 944.60156 598.14648 A 344.60056 338.0773 0 0 0 944.60156 598.13672 A 344.60056 338.0773 0 0 0 944.60156 598.125 A 344.60056 338.0773 0 0 0 944.60156 598.11523 A 344.60056 338.0773 0 0 0 944.60156 598.10547 A 344.60056 338.0773 0 0 0 944.60156 598.0918 A 344.60056 338.0773 0 0 0 944.60156 598.08203 A 344.60056 338.0773 0 0 0 944.60156 598.07031 A 344.60056 338.0773 0 0 0 944.60156 598.06055 A 344.60056 338.0773 0 0 0 944.60156 598.05078 A 344.60056 338.0773 0 0 0 944.60156 598.04102 A 344.60056 338.0773 0 0 0 944.60156 598.03125 A 344.60056 338.0773 0 0 0 944.60156 598.02148 A 344.60056 338.0773 0 0 0 944.60156 598.00977 A 344.60056 338.0773 0 0 0 944.60156 597.99805 A 344.60056 338.0773 0 0 0 944.60156 597.98828 A 344.60056 338.0773 0 0 0 944.60156 597.97852 A 344.60056 338.0773 0 0 0 944.60156 597.9668 A 344.60056 338.0773 0 0 0 944.60156 597.95703 A 344.60056 338.0773 0 0 0 944.60156 597.94727 A 344.60056 338.0773 0 0 0 944.60156 597.9375 A 344.60056 338.0773 0 0 0 944.60156 597.92578 A 344.60056 338.0773 0 0 0 944.60156 597.91602 A 344.60056 338.0773 0 0 0 944.60156 597.9043 A 344.60056 338.0773 0 0 0 944.60156 597.89453 A 344.60056 338.0773 0 0 0 944.60156 597.88477 A 344.60056 338.0773 0 0 0 944.60156 597.875 A 344.60056 338.0773 0 0 0 944.60156 597.86523 A 344.60056 338.0773 0 0 0 944.60156 597.85352 A 344.60056 338.0773 0 0 0 944.60156 597.8418 A 344.60056 338.0773 0 0 0 944.60156 597.83203 A 344.60056 338.0773 0 0 0 944.60156 597.82227 A 344.60056 338.0773 0 0 0 944.60156 597.81055 A 344.60056 338.0773 0 0 0 944.60156 597.80078 A 344.60056 338.0773 0 0 0 944.60156 597.79102 A 344.60056 338.0773 0 0 0 944.60156 597.78125 A 344.60056 338.0773 0 0 0 944.60156 597.77148 A 344.60056 338.0773 0 0 0 944.60156 597.76172 A 344.60056 338.0773 0 0 0 944.60156 597.75 A 344.60056 338.0773 0 0 0 944.60156 597.73828 A 344.60056 338.0773 0 0 0 944.60156 597.72852 A 344.60056 338.0773 0 0 0 944.60156 597.71875 A 344.60056 338.0773 0 0 0 944.60156 597.70703 A 344.60056 338.0773 0 0 0 944.60156 597.69727 A 344.60056 338.0773 0 0 0 944.60156 597.6875 A 344.60056 338.0773 0 0 0 944.60156 597.67773 A 344.60056 338.0773 0 0 0 944.60156 597.66602 A 344.60056 338.0773 0 0 0 944.60156 597.65625 A 344.60056 338.0773 0 0 0 944.60156 597.64648 A 344.60056 338.0773 0 0 0 944.60156 597.63477 A 344.60056 338.0773 0 0 0 944.60156 597.625 A 344.60056 338.0773 0 0 0 944.60156 597.61328 A 344.60056 338.0773 0 0 0 944.60156 597.60156 A 344.60056 338.0773 0 0 0 944.60156 597.5918 A 344.60056 338.0773 0 0 0 944.60156 597.58008 A 344.60056 338.0773 0 0 0 944.60156 597.57031 A 344.60056 338.0773 0 0 0 944.60156 597.56055 A 344.60056 338.0773 0 0 0 944.60156 597.55078 A 344.60056 338.0773 0 0 0 944.60156 597.53906 A 344.60056 338.0773 0 0 0 944.60156 597.5293 A 344.60056 338.0773 0 0 0 944.60156 597.51953 A 344.60056 338.0773 0 0 0 944.60156 597.50977 A 344.60056 338.0773 0 0 0 944.60156 597.49609 A 344.60056 338.0773 0 0 0 944.60156 597.48438 A 344.60056 338.0773 0 0 0 944.60156 597.47461 A 344.60056 338.0773 0 0 0 944.60156 597.46484 A 344.60056 338.0773 0 0 0 944.60156 597.45508 A 344.60056 338.0773 0 0 0 944.60156 597.44531 A 344.60056 338.0773 0 0 0 944.60156 597.43555 A 344.60056 338.0773 0 0 0 944.60156 597.42578 A 344.60056 338.0773 0 0 0 944.60156 597.41406 A 344.60056 338.0773 0 0 0 944.60156 597.40234 A 344.60056 338.0773 0 0 0 944.60156 597.39258 A 344.60056 338.0773 0 0 0 944.60156 597.38281 A 344.60056 338.0773 0 0 0 944.60156 597.37109 A 344.60056 338.0773 0 0 0 944.60156 597.36133 A 344.60056 338.0773 0 0 0 944.60156 597.34961 A 344.60056 338.0773 0 0 0 944.60156 597.33984 A 344.60056 338.0773 0 0 0 944.60156 597.32812 A 344.60056 338.0773 0 0 0 944.60156 597.31836 A 344.60056 338.0773 0 0 0 944.60156 597.30859 A 344.60056 338.0773 0 0 0 944.60156 597.29688 A 344.60056 338.0773 0 0 0 944.60156 597.28711 A 344.60056 338.0773 0 0 0 944.60156 597.27734 A 344.60056 338.0773 0 0 0 944.60156 597.26758 A 344.60056 338.0773 0 0 0 944.60156 597.25586 A 344.60056 338.0773 0 0 0 944.60156 597.24414 A 344.60056 338.0773 0 0 0 944.60156 597.23242 A 344.60056 338.0773 0 0 0 944.60156 597.22266 A 344.60056 338.0773 0 0 0 944.60156 597.21289 A 344.60056 338.0773 0 0 0 944.60156 597.20312 A 344.60056 338.0773 0 0 0 944.60156 597.19141 A 344.60056 338.0773 0 0 0 944.60156 597.18164 A 344.60056 338.0773 0 0 0 944.60156 597.17188 A 344.60056 338.0773 0 0 0 944.60156 597.1582 A 344.60056 338.0773 0 0 0 944.60156 597.14844 A 344.60056 338.0773 0 0 0 944.60156 597.13867 A 344.60056 338.0773 0 0 0 944.60156 597.12891 A 344.60056 338.0773 0 0 0 944.60156 597.11719 A 344.60056 338.0773 0 0 0 944.60156 597.10742 A 344.60056 338.0773 0 0 0 944.60156 597.09766 A 344.60056 338.0773 0 0 0 944.60156 597.08594 A 344.60056 338.0773 0 0 0 944.60156 597.07227 A 344.60056 338.0773 0 0 0 944.60156 597.0625 A 344.60056 338.0773 0 0 0 944.60156 597.05273 A 344.60056 338.0773 0 0 0 944.60156 597.04297 A 344.60056 338.0773 0 0 0 944.60156 597.0332 A 344.60056 338.0773 0 0 0 944.60156 597.02344 A 344.60056 338.0773 0 0 0 944.60156 597.01172 A 344.60056 338.0773 0 0 0 944.60156 597.00195 A 344.60056 338.0773 0 0 0 944.60156 596.99023 A 344.60056 338.0773 0 0 0 944.60156 596.97852 A 344.60056 338.0773 0 0 0 944.60156 596.9668 A 344.60056 338.0773 0 0 0 944.60156 596.95703 A 344.60056 338.0773 0 0 0 944.60156 596.94727 A 344.60056 338.0773 0 0 0 944.60156 596.9375 A 344.60056 338.0773 0 0 0 944.60156 596.92773 A 344.60056 338.0773 0 0 0 944.60156 596.91797 A 344.60056 338.0773 0 0 0 944.60156 596.90625 A 344.60056 338.0773 0 0 0 944.60156 596.89648 A 344.60056 338.0773 0 0 0 944.60156 596.88477 A 344.60056 338.0773 0 0 0 944.60156 596.875 A 344.60056 338.0773 0 0 0 944.60156 596.86328 A 344.60056 338.0773 0 0 0 944.60156 596.85352 A 344.60056 338.0773 0 0 0 944.60156 596.84375 A 344.60056 338.0773 0 0 0 944.60156 596.83398 A 344.60056 338.0773 0 0 0 944.60156 596.82227 A 344.60056 338.0773 0 0 0 944.60156 596.8125 A 344.60056 338.0773 0 0 0 944.60156 596.80273 A 344.60056 338.0773 0 0 0 944.60156 596.79102 A 344.60056 338.0773 0 0 0 944.60156 596.78125 A 344.60056 338.0773 0 0 0 944.60156 596.77148 A 344.60056 338.0773 0 0 0 944.60156 596.75977 A 344.60056 338.0773 0 0 0 944.60156 596.75 A 344.60056 338.0773 0 0 0 944.60156 596.73828 A 344.60056 338.0773 0 0 0 944.60156 596.72852 A 344.60056 338.0773 0 0 0 944.60156 596.71875 A 344.60056 338.0773 0 0 0 944.60156 596.70898 A 344.60056 338.0773 0 0 0 944.60156 596.69727 A 344.60056 338.0773 0 0 0 944.60156 596.6875 A 344.60056 338.0773 0 0 0 944.60156 596.67578 A 344.60056 338.0773 0 0 0 944.60156 596.66602 A 344.60056 338.0773 0 0 0 944.60156 596.6543 A 344.60056 338.0773 0 0 0 944.60156 596.64453 A 344.60056 338.0773 0 0 0 944.60156 596.63477 A 344.60056 338.0773 0 0 0 944.60156 596.62305 A 344.60056 338.0773 0 0 0 944.60156 596.61328 A 344.60056 338.0773 0 0 0 944.60156 596.60156 A 344.60056 338.0773 0 0 0 944.60156 596.5918 A 344.60056 338.0773 0 0 0 944.60156 596.58203 A 344.60056 338.0773 0 0 0 944.60156 596.56836 A 344.60056 338.0773 0 0 0 944.60156 596.55859 A 344.60056 338.0773 0 0 0 944.60156 596.54883 A 344.60056 338.0773 0 0 0 944.60156 596.53906 A 344.60056 338.0773 0 0 0 944.60156 596.5293 A 344.60056 338.0773 0 0 0 944.60156 596.51758 A 344.60056 338.0773 0 0 0 944.60156 596.50586 A 344.60056 338.0773 0 0 0 944.60156 596.49609 A 344.60056 338.0773 0 0 0 944.60156 596.48438 A 344.60056 338.0773 0 0 0 944.60156 596.47461 A 344.60056 338.0773 0 0 0 944.60156 596.46289 A 344.60056 338.0773 0 0 0 944.60156 596.45312 A 344.60056 338.0773 0 0 0 944.60156 596.44336 A 344.60056 338.0773 0 0 0 944.60156 596.43359 A 344.60056 338.0773 0 0 0 944.60156 596.42188 A 344.60056 338.0773 0 0 0 944.60156 596.41211 A 344.60056 338.0773 0 0 0 944.60156 596.40039 A 344.60056 338.0773 0 0 0 944.60156 596.39062 A 344.60056 338.0773 0 0 0 944.60156 596.38086 A 344.60056 338.0773 0 0 0 944.60156 596.36914 A 344.60056 338.0773 0 0 0 944.60156 596.35742 A 344.60056 338.0773 0 0 0 944.60156 596.34766 A 344.60056 338.0773 0 0 0 944.60156 596.33789 A 344.60056 338.0773 0 0 0 944.60156 596.32617 A 344.60056 338.0773 0 0 0 944.60156 596.31445 A 344.60056 338.0773 0 0 0 944.60156 596.30469 A 344.60056 338.0773 0 0 0 944.60156 596.29492 A 344.60056 338.0773 0 0 0 944.60156 596.28516 A 344.60056 338.0773 0 0 0 944.60156 596.27539 A 344.60056 338.0773 0 0 0 944.60156 596.26562 A 344.60056 338.0773 0 0 0 944.60156 596.25391 A 344.60056 338.0773 0 0 0 944.60156 596.24414 A 344.60056 338.0773 0 0 0 944.60156 596.23242 A 344.60056 338.0773 0 0 0 944.60156 596.2207 A 344.60056 338.0773 0 0 0 944.60156 596.21094 A 344.60056 338.0773 0 0 0 944.60156 596.20117 A 344.60056 338.0773 0 0 0 944.60156 596.19141 A 344.60056 338.0773 0 0 0 944.60156 596.18164 A 344.60056 338.0773 0 0 0 944.60156 596.17188 A 344.60056 338.0773 0 0 0 944.60156 596.16211 A 344.60056 338.0773 0 0 0 944.60156 596.15234 A 344.60056 338.0773 0 0 0 944.60156 596.13867 A 344.60056 338.0773 0 0 0 944.60156 596.12695 A 344.60056 338.0773 0 0 0 944.60156 596.11719 A 344.60056 338.0773 0 0 0 944.60156 596.10742 A 344.60056 338.0773 0 0 0 944.60156 596.09766 A 344.60056 338.0773 0 0 0 944.60156 596.08789 A 344.60056 338.0773 0 0 0 944.60156 596.07812 A 344.60056 338.0773 0 0 0 944.60156 596.06836 A 344.60056 338.0773 0 0 0 944.60156 596.05664 A 344.60056 338.0773 0 0 0 944.60156 596.04492 A 344.60056 338.0773 0 0 0 944.60156 596.03516 A 344.60056 338.0773 0 0 0 944.60156 596.02344 A 344.60056 338.0773 0 0 0 944.60156 596.01367 A 344.60056 338.0773 0 0 0 944.60156 596.00391 A 344.60056 338.0773 0 0 0 944.60156 595.99414 A 344.60056 338.0773 0 0 0 944.60156 595.98438 A 344.60056 338.0773 0 0 0 944.60156 595.97266 A 344.60056 338.0773 0 0 0 944.60156 595.96289 A 344.60056 338.0773 0 0 0 944.60156 595.95117 A 344.60056 338.0773 0 0 0 944.60156 595.94141 A 344.60056 338.0773 0 0 0 944.60156 595.93164 A 344.60056 338.0773 0 0 0 944.60156 595.92188 A 344.60056 338.0773 0 0 0 944.60156 595.91016 A 344.60056 338.0773 0 0 0 944.60156 595.90039 A 344.60056 338.0773 0 0 0 944.60156 595.88867 A 344.60056 338.0773 0 0 0 944.60156 595.87891 A 344.60056 338.0773 0 0 0 944.60156 595.86914 A 344.60056 338.0773 0 0 0 944.60156 595.85742 A 344.60056 338.0773 0 0 0 944.60156 595.84766 A 344.60056 338.0773 0 0 0 944.60156 595.83789 A 344.60056 338.0773 0 0 0 944.60156 595.82812 A 344.60056 338.0773 0 0 0 944.60156 595.81836 A 344.60056 338.0773 0 0 0 944.60156 595.80664 A 344.60056 338.0773 0 0 0 944.60156 595.79492 A 344.60056 338.0773 0 0 0 944.60156 595.78516 A 344.60056 338.0773 0 0 0 944.60156 595.77344 A 344.60056 338.0773 0 0 0 944.60156 595.76367 A 344.60056 338.0773 0 0 0 944.60156 595.75391 A 344.60056 338.0773 0 0 0 944.60156 595.74414 A 344.60056 338.0773 0 0 0 944.60156 595.73438 A 344.60056 338.0773 0 0 0 944.60156 595.72266 A 344.60056 338.0773 0 0 0 944.60156 595.71289 A 344.60056 338.0773 0 0 0 944.60156 595.70312 A 344.60056 338.0773 0 0 0 944.60156 595.69336 A 344.60056 338.0773 0 0 0 944.60156 595.68164 A 344.60056 338.0773 0 0 0 944.60156 595.67188 A 344.60056 338.0773 0 0 0 944.60156 595.66016 A 344.60056 338.0773 0 0 0 944.60156 595.65039 A 344.60056 338.0773 0 0 0 944.60156 595.63867 A 344.60056 338.0773 0 0 0 944.60156 595.62891 A 344.60056 338.0773 0 0 0 944.60156 595.61914 A 344.60056 338.0773 0 0 0 944.60156 595.60938 A 344.60056 338.0773 0 0 0 944.60156 595.59961 A 344.60056 338.0773 0 0 0 944.60156 595.58789 A 344.60056 338.0773 0 0 0 944.60156 595.57812 A 344.60056 338.0773 0 0 0 944.60156 595.56641 A 344.60056 338.0773 0 0 0 944.60156 595.55273 A 344.60056 338.0773 0 0 0 944.60156 595.54297 A 344.60056 338.0773 0 0 0 944.60156 595.5332 A 344.60056 338.0773 0 0 0 944.60156 595.52344 A 344.60056 338.0773 0 0 0 944.60156 595.51367 A 344.60056 338.0773 0 0 0 944.60156 595.50391 A 344.60056 338.0773 0 0 0 944.60156 595.49219 A 344.60056 338.0773 0 0 0 944.60156 595.48242 A 344.60056 338.0773 0 0 0 944.60156 595.4707 A 344.60056 338.0773 0 0 0 944.60156 595.46094 A 344.60056 338.0773 0 0 0 944.60156 595.44922 A 344.60056 338.0773 0 0 0 944.60156 595.43945 A 344.60056 338.0773 0 0 0 944.60156 595.42773 A 344.60056 338.0773 0 0 0 944.60156 595.41797 A 344.60056 338.0773 0 0 0 944.60156 595.4082 A 344.60056 338.0773 0 0 0 944.60156 595.39844 A 344.60056 338.0773 0 0 0 944.60156 595.38867 A 344.60056 338.0773 0 0 0 944.60156 595.37695 A 344.60056 338.0773 0 0 0 944.60156 595.36719 A 344.60056 338.0773 0 0 0 944.60156 595.35547 A 344.60056 338.0773 0 0 0 944.60156 595.3457 A 344.60056 338.0773 0 0 0 944.60156 595.33594 A 344.60056 338.0773 0 0 0 944.60156 595.32422 A 344.60056 338.0773 0 0 0 944.60156 595.31445 A 344.60056 338.0773 0 0 0 944.60156 595.30078 A 344.60056 338.0773 0 0 0 944.60156 595.29102 A 344.60056 338.0773 0 0 0 944.60156 595.28125 A 344.60056 338.0773 0 0 0 944.60156 595.27148 A 344.60056 338.0773 0 0 0 944.60156 595.26172 A 344.60056 338.0773 0 0 0 944.60156 595.25 A 344.60056 338.0773 0 0 0 944.60156 595.24023 A 344.60056 338.0773 0 0 0 944.60156 595.23047 A 344.60056 338.0773 0 0 0 944.60156 595.2207 A 344.60056 338.0773 0 0 0 944.60156 595.20703 A 344.60056 338.0773 0 0 0 944.60156 595.19531 A 344.60056 338.0773 0 0 0 944.60156 595.18555 A 344.60056 338.0773 0 0 0 944.60156 595.17578 A 344.60056 338.0773 0 0 0 944.60156 595.16602 A 344.60056 338.0773 0 0 0 944.60156 595.15625 A 344.60056 338.0773 0 0 0 944.60156 595.14453 A 344.60056 338.0773 0 0 0 944.60156 595.13477 A 344.60056 338.0773 0 0 0 944.60156 595.12305 A 344.60056 338.0773 0 0 0 944.60156 595.11133 A 344.60056 338.0773 0 0 0 944.60156 595.10156 A 344.60056 338.0773 0 0 0 944.60156 595.0918 A 344.60056 338.0773 0 0 0 944.60156 595.08008 A 344.60056 338.0773 0 0 0 944.60156 595.07031 A 344.60056 338.0773 0 0 0 944.60156 595.06055 A 344.60056 338.0773 0 0 0 944.60156 595.05078 A 344.60056 338.0773 0 0 0 944.60156 595.03711 A 344.60056 338.0773 0 0 0 944.5918 594.64062 A 344.60056 338.0773 0 0 0 944.58203 594.24609 A 344.60056 338.0773 0 0 0 944.57031 593.85156 A 344.60056 338.0773 0 0 0 944.56055 593.45508 A 344.60056 338.0773 0 0 0 944.54492 593.06055 A 344.60056 338.0773 0 0 0 944.53516 592.66602 A 344.60056 338.0773 0 0 0 944.52539 592.27148 A 344.60056 338.0773 0 0 0 944.51367 591.875 A 344.60056 338.0773 0 0 0 944.50391 591.48047 A 344.60056 338.0773 0 0 0 944.49414 591.08594 A 344.60056 338.0773 0 0 0 944.48242 590.68945 A 344.60056 338.0773 0 0 0 944.47266 590.29492 A 344.60056 338.0773 0 0 0 944.45508 589.90039 A 344.60056 338.0773 0 0 0 944.44336 589.50586 A 344.60056 338.0773 0 0 0 944.43164 589.11133 A 344.60056 338.0773 0 0 0 944.41992 588.71484 A 344.60056 338.0773 0 0 0 944.4043 588.32031 A 344.60056 338.0773 0 0 0 944.39062 587.92578 A 344.60056 338.0773 0 0 0 944.37109 587.53125 A 344.60056 338.0773 0 0 0 944.35742 587.13477 A 344.60056 338.0773 0 0 0 944.3418 586.74023 A 344.60056 338.0773 0 0 0 944.32617 586.3457 A 344.60056 338.0773 0 0 0 944.30859 585.95117 A 344.60056 338.0773 0 0 0 944.29102 585.55664 A 344.60056 338.0773 0 0 0 944.27148 585.16211 A 344.60056 338.0773 0 0 0 944.25391 584.76758 A 344.60056 338.0773 0 0 0 944.23828 584.37109 A 344.60056 338.0773 0 0 0 944.21875 583.97656 A 344.60056 338.0773 0 0 0 944.19531 583.58203 A 344.60056 338.0773 0 0 0 944.17773 583.1875 A 344.60056 338.0773 0 0 0 944.1582 582.79297 A 344.60056 338.0773 0 0 0 942.91406 566.24414 A 344.60056 338.0773 0 0 0 940.8418 549.77539 A 344.60056 338.0773 0 0 0 937.95117 533.42578 A 344.60056 338.0773 0 0 0 936.02539 525.00781 z M 876.78125 801.30859 C 874.83965 802.46879 872.97102 803.7099 871.01172 804.8457 C 864.13826 808.8307 857.16802 812.66284 850.19336 816.33594 C 843.2187 820.0089 836.23931 823.52257 829.34375 826.86523 C 822.44819 830.20783 815.63626 833.3812 809 836.375 C 802.36364 839.36877 795.90184 842.1822 789.70508 844.80859 C 783.50828 847.43499 777.57699 849.87278 772 852.11328 C 766.42294 854.35378 760.65648 856.507 754.73828 858.57227 C 748.82022 860.63746 742.74925 862.6147 736.56445 864.50977 C 730.37979 866.40476 724.08204 868.21737 717.70508 869.94727 C 711.32821 871.67716 704.87347 873.32463 698.37891 874.89453 C 691.88431 876.46433 685.34841 877.9563 678.81055 879.37109 C 672.27275 880.78599 665.73316 882.12377 659.22656 883.38867 C 646.21344 885.91847 633.33609 888.15474 620.89453 890.11523 C 608.45297 892.07563 596.4461 893.76176 585.17188 895.19336 C 573.89772 896.62486 563.35491 897.80094 553.84375 898.74414 C 544.33259 899.68724 535.85366 900.39738 528.70117 900.89258 C 521.54881 901.38778 515.72339 901.66806 511.52539 901.75586 C 509.46929 901.79886 507.38675 901.95073 505.28125 902.20312 C 503.17575 902.45562 501.04674 902.80991 498.89844 903.25781 C 496.75014 903.70571 494.58294 904.24755 492.39844 904.87695 C 490.21394 905.50625 488.01293 906.22263 485.79883 907.01953 C 481.37063 908.61323 476.88951 910.52723 472.38281 912.70703 C 471.98341 912.90013 471.57939 913.15426 471.17969 913.35156 A 344.60056 338.0773 0 0 0 479.57422 916.76367 A 344.60056 338.0773 0 0 0 502.91406 924.38477 A 344.60056 338.0773 0 0 0 526.74805 930.35156 A 344.60056 338.0773 0 0 0 550.95703 934.63672 A 344.60056 338.0773 0 0 0 575.41602 937.21484 A 344.60056 338.0773 0 0 0 600 938.07812 A 344.60056 338.0773 0 0 0 624.58398 937.21484 A 344.60056 338.0773 0 0 0 649.04102 934.63672 A 344.60056 338.0773 0 0 0 673.25 930.35156 A 344.60056 338.0773 0 0 0 697.08398 924.38477 A 344.60056 338.0773 0 0 0 720.42578 916.76367 A 344.60056 338.0773 0 0 0 743.15234 907.52734 A 344.60056 338.0773 0 0 0 765.14844 896.72461 A 344.60056 338.0773 0 0 0 786.30469 884.41016 A 344.60056 338.0773 0 0 0 806.50977 870.64648 A 344.60056 338.0773 0 0 0 825.66406 855.50391 A 344.60056 338.0773 0 0 0 843.66797 839.05859 A 344.60056 338.0773 0 0 0 860.43164 821.39453 A 344.60056 338.0773 0 0 0 875.86719 802.60352 A 344.60056 338.0773 0 0 0 876.78125 801.30859 z " /></svg>
