<?xml version="1.0" encoding="UTF-8" standalone="no"?>
<!-- Created with Inkscape (http://www.inkscape.org/) -->

<svg
   version="1.1"
   id="svg1"
   width="1200"
   height="1200"
   viewBox="0 0 1200 1200"
   xml:space="preserve"
   xmlns="http://www.w3.org/2000/svg"><defs
     id="defs1" /><path
     id="path1-69-9"
     style="fill:#ffffff;fill-opacity:1;stroke:none;stroke-width:4.7244;stroke-linejoin:round;stroke-miterlimit:0;stroke-dasharray:none;stroke-opacity:1;paint-order:fill markers stroke"
     d="m 738.13481,244.80176 0.006,0.0801 c -23.27256,-0.86843 -49.8311,4.49581 -80.39454,21.82227 l -0.12109,0.0801 c 3.20821,0.5005 6.40906,1.04547 9.60156,1.63477 5.53081,1.07957 11.03377,2.29218 16.50391,3.63672 4.6861,1.16798 9.34665,2.43258 13.97852,3.79297 -0.9737,1.28068 -1.99998,2.55517 -3.08008,3.82422 -1.08,1.26899 -2.21374,2.53264 -3.39844,3.78906 -1.1911,1.2632 -2.43426,2.51926 -3.72656,3.76953 -1.2922,1.25027 -2.63364,2.49477 -4.02344,3.73242 -1.3898,1.23766 -2.82685,2.46863 -4.31055,3.69336 -1.4837,1.22473 -3.01409,2.44321 -4.58789,3.6543 -3.14765,2.42217 -6.47243,4.8166 -9.95898,7.18359 -3.4867,2.36699 -7.13529,4.70586 -10.93164,7.01563 -3.7963,2.3097 -7.74161,4.59136 -11.81836,6.84179 -4.0769,2.2505 -8.28523,4.47097 -12.61328,6.66016 -4.3281,2.18919 -8.77598,4.34682 -13.32618,6.47266 -4.55005,2.12578 -9.20461,4.21868 -13.94726,6.27929 -4.7428,2.06062 -9.57387,4.08907 -14.48047,6.08203 -4.9067,1.99302 -9.88688,3.95155 -14.92773,5.875 -5.041,1.92351 -10.14287,3.81204 -15.28907,5.66407 -5.14625,1.85197 -10.33819,3.66704 -15.56054,5.44531 -5.2223,1.77826 -10.47519,3.51983 -15.74414,5.22265 -5.269,1.70287 -10.55345,3.3668 -15.83985,4.99219 -5.28635,1.6254 -10.57481,3.21231 -15.84961,4.75781 -10.54975,3.09109 -21.04735,6.02115 -31.375,8.78126 -10.32775,2.76006 -20.48742,5.34897 -30.35937,7.76171 -4.27793,1.04556 -8.24964,1.92416 -12.41016,2.90235 -1.31871,0.31054 -2.5928,0.60846 -3.89844,0.91211 -0.004,8.9e-4 -0.008,9.5e-4 -0.0117,0.002 -4.08922,0.9496 -8.36866,1.99945 -12.31835,2.88086 -9.1826,2.04916 -17.96341,3.91285 -26.22266,5.58203 -8.25935,1.66919 -15.99911,3.14509 -23.10156,4.41797 -7.1025,1.27287 -13.56755,2.34295 -19.2793,3.20312 -5.71185,0.86024 -10.67046,1.51015 -14.75781,1.94141 -2.0107,0.21214 -3.79933,0.36954 -5.36328,0.47266 -1.56324,0.10308 -2.9017,0.15238 -4.01368,0.14843 h -0.002 c -0.0376,1.4e-4 -0.11825,0.01 -0.1543,0.01 -35.66962,-0.2248 -85.93449,23.57032 -90.43359,75.94336 -4.49098,52.27805 34.78347,80.72741 35.75977,83.09961 l 0.0391,-0.0254 2.51367,-22.94922 c 1.38855,-7.46231 3.03271,-14.87668 4.92969,-22.23047 0.7085,-0.1115 7.44004,-1.16313 20.71484,-3.51953 13.94215,-2.4748 34.01269,-6.20244 58.52149,-11.21094 12.2544,-2.5043 25.61966,-5.32986 39.88281,-8.47851 14.2632,-3.1487 29.42539,-6.62138 45.27539,-10.42188 15.85,-3.80045 32.38744,-7.92902 49.40234,-12.38867 17.01495,-4.45972 34.50773,-9.25076 52.26563,-14.37695 12.80145,-3.69544 25.90579,-7.56558 39.11914,-11.66016 13.21345,-4.09458 26.53579,-8.41261 39.77344,-13.00391 6.61875,-2.29558 13.21733,-4.65953 19.76953,-7.09765 6.55215,-2.43812 13.05904,-4.95019 19.49609,-7.54297 6.43705,-2.59278 12.80463,-5.26575 19.07813,-8.02539 6.27355,-2.75965 12.45217,-5.60629 18.51367,-8.54492 6.06145,-2.9387 12.00564,-5.96972 17.80664,-9.09961 5.80105,-3.12995 11.45912,-6.36003 16.95117,-9.69336 5.4921,-3.3334 10.81853,-6.77132 15.95313,-10.32031 5.13465,-3.54902 10.07784,-7.20952 14.80664,-10.98633 4.72865,-3.77687 9.24322,-7.67066 13.51757,-11.6875 4.2744,-4.0169 8.30863,-8.15672 12.08008,-12.42578 3.7716,-4.26913 7.27975,-8.66763 10.5,-13.20118 1.6102,-2.26671 3.14803,-4.56717 4.61133,-6.90234 l 4.15625,-7.18945 c 17.50026,-32.12271 -2.19272,-67.39952 -35.69336,-74.34571 -7.05358,-1.46253 -14.44564,-2.44294 -22.20312,-2.73242 z m -250.36133,18.29688 c -2.8531,0.032 -5.76388,0.14774 -8.72656,0.33984 -2.9627,0.1922 -5.97686,0.46149 -9.03516,0.80469 -3.0584,0.3432 -6.16275,0.75904 -9.30273,1.24414 -3.14,0.4852 -6.31576,1.0401 -9.52344,1.6582 -3.2077,0.6182 -6.44575,1.30078 -9.70703,2.04297 -3.2614,0.7422 -6.54656,1.54329 -9.84766,2.40039 -1.6505,0.42859 -3.26194,0.90815 -4.83594,1.43555 -1.5741,0.5273 -3.11017,1.10181 -4.60937,1.7207 -1.4992,0.6188 -2.96279,1.28323 -4.38867,1.98633 -1.4259,0.7031 -2.81563,1.44646 -4.16993,2.22656 -1.35428,0.78019 -2.67283,1.59543 -3.95703,2.44531 -1.2842,0.8499 -2.53226,1.73409 -3.74804,2.64649 -1.2157,0.9125 -2.39788,1.85448 -3.54688,2.82226 -1.1489,0.9678 -2.26591,1.96067 -3.34961,2.97657 -1.0836,1.0159 -2.1342,2.05453 -3.1543,3.11133 -1.01998,1.05678 -2.00869,2.13216 -2.96679,3.22265 -1.916,2.1808 -3.70912,4.42147 -5.38672,6.69336 -1.6775,2.272 -3.23941,4.57567 -4.69141,6.88086 -1.452,2.3052 -2.79595,4.61198 -4.03515,6.89258 -1.2393,2.2805 -2.37467,4.53433 -3.41407,6.73242 -1.0394,2.198 -1.98158,4.34084 -2.83398,6.39844 -0.8523,2.0577 -1.61477,4.02927 -2.29297,5.88867 -0.6781,1.8594 -1.27226,3.6057 -1.78906,5.20898 -1.0337,3.20649 -1.75726,5.84294 -2.22266,7.67774 -0.4654,1.8348 -0.92578,3.89062 -0.92578,3.89062 0,0 1.5256,-1.15032 3.2793,-2.95312 0.8768,-0.9014 2.32295,-1.9983 3.56445,-3.125 0.41755,-0.37891 1.03951,-0.85962 1.55859,-1.30469 l 0.0176,-0.0137 c 0.2003,-0.18383 0.40082,-0.36742 0.60157,-0.55078 0.34256,-0.27148 0.68566,-0.54231 1.02929,-0.8125 0.0113,-0.009 0.0199,-0.0181 0.0312,-0.0274 0.49643,-0.40425 0.92904,-0.80564 1.39844,-1.16797 1.5571,-1.20178 2.97718,-2.6858 4.80078,-3.8125 0.9118,-0.56338 1.25746,-1.20625 2.22656,-1.72265 0.53645,-0.28581 0.9006,-0.81182 1.43946,-1.09766 l 0.0527,-0.041 c 0.4254,-0.20471 0.83719,-0.42732 1.27149,-0.61914 1.02035,-0.4507 2.0653,-0.86233 3.13085,-1.22852 1.0655,-0.36619 2.15136,-0.68631 3.25586,-0.94922 1.1045,-0.2629 2.22794,-0.46853 3.36524,-0.60937 1.1373,-0.1408 2.28912,-0.2168 3.45312,-0.2168 1.164,0 2.44985,0.0564 3.84375,0.16211 1.394,0.10571 2.89549,0.26086 4.49414,0.45703 3.1974,0.39233 6.78069,0.95069 10.64649,1.61328 7.73135,1.32518 16.59767,3.06848 25.79492,4.74219 4.5986,0.83685 9.27996,1.65562 13.94336,2.39648 4.66325,0.74087 9.30914,1.40303 13.83594,1.92578 2.26335,0.26139 4.4959,0.48789 6.6875,0.67188 2.19145,0.18399 4.34109,0.32667 6.43554,0.41797 2.0946,0.0913 4.13503,0.13183 6.10743,0.11523 1.97225,-0.0166 3.87802,-0.0907 5.70312,-0.23047 1.8251,-0.13978 3.6845,-0.34172 5.56445,-0.60351 1.8801,-0.26179 3.7794,-0.58323 5.6836,-0.9668 1.9042,-0.38356 3.81338,-0.82887 5.71093,-1.33398 1.8976,-0.50511 3.78424,-1.07084 5.64454,-1.69727 1.86025,-0.62642 3.69427,-1.31304 5.48632,-2.06055 1.7922,-0.74747 3.54303,-1.55544 5.23633,-2.42382 1.6932,-0.86838 3.32898,-1.7981 4.89258,-2.78711 1.5636,-0.98901 3.05383,-2.03707 4.45703,-3.14649 1.4031,-1.10941 2.71964,-2.28017 3.93164,-3.50976 1.212,-1.2296 2.32045,-2.51765 3.31055,-3.86719 0.495,-0.67477 0.95888,-1.3656 1.39258,-2.07031 0.4338,-0.70472 0.83648,-1.42357 1.20508,-2.15821 0.3686,-0.73458 0.7042,-1.48547 1.0039,-2.25 0.2997,-0.76447 0.56412,-1.54351 0.79102,-2.33789 0.2269,-0.79438 0.4162,-1.60352 0.5664,-2.42773 0.1503,-0.82421 0.26205,-1.66357 0.33203,-2.51758 0.07,-0.85401 0.096,-1.72168 0.082,-2.60547 -0.0146,-0.88378 -0.071,-1.78373 -0.17383,-2.69726 -0.1027,-0.91353 -0.25051,-1.84191 -0.44531,-2.78516 -0.1947,-0.94325 -0.43597,-1.90011 -0.72657,-2.87305 -0.2907,-0.97293 -0.63118,-1.96224 -1.02148,-2.96484 -0.3904,-1.0026 -0.83032,-2.01855 -1.32422,-3.05078 -0.4939,-1.03223 -1.02093,-2.0329 -1.57813,-3.00195 -0.55705,-0.96911 -1.14507,-1.90735 -1.76367,-2.81446 -0.6187,-0.90711 -1.26701,-1.78266 -1.94531,-2.6289 -0.6784,-0.84624 -1.38665,-1.66272 -2.12305,-2.44922 -0.7364,-0.7865 -1.50232,-1.5436 -2.29492,-2.27149 -0.7926,-0.72788 -1.61188,-1.42725 -2.45898,-2.09765 -0.8471,-0.6704 -1.7212,-1.31174 -2.6211,-1.92578 -0.8998,-0.61405 -1.82449,-1.20096 -2.77539,-1.75977 -0.9508,-0.55881 -1.92763,-1.08904 -2.92773,-1.59375 -0.70278,-0.35463 -1.43185,-0.68139 -2.1582,-1.00977 -0.3068,-0.1388 -0.60121,-0.29168 -0.91211,-0.42578 -2.0952,-0.9035 -4.2839,-1.70209 -6.5586,-2.40039 -2.2748,-0.6983 -4.63587,-1.29673 -7.07617,-1.79883 -2.4403,-0.5022 -4.95888,-0.90755 -7.55078,-1.22265 -2.5918,-0.3151 -5.25683,-0.53878 -7.98633,-0.67578 -2.7295,-0.137 -5.52385,-0.18835 -8.37695,-0.15625 z m 16.88476,29.12304 c 2.90479,2.4e-4 5.25953,2.35498 5.25977,5.25977 -2.5e-4,2.90479 -2.35498,5.25953 -5.25977,5.25976 -2.90477,-2.4e-4 -5.25951,-2.35498 -5.25976,-5.25976 2.4e-4,-2.90479 2.35498,-5.25952 5.25976,-5.25977 z m 372.16602,101.83399 c -1.9525,0.0413 -3.14115,0.16537 -3.36133,0.30859 l 3.31836,4.24414 c 3.35874,4.44329 6.60582,8.96679 9.73828,13.56641 3.13274,4.59983 6.14993,9.27442 9.04883,14.01953 0.34625,0.59598 0.69065,1.19299 1.0332,1.79102 -6.21465,5.29899 -13.40895,11.07874 -21.5039,17.24218 -8.1096,6.17468 -17.11785,12.73095 -26.9336,19.56446 -9.81575,6.83345 -20.4404,13.94519 -31.78125,21.22851 -11.34095,7.28331 -23.39903,14.73942 -36.08398,22.26367 -12.68495,7.5243 -25.99575,15.11768 -39.84375,22.67383 -13.84795,7.55625 -28.2326,15.07593 -43.0625,22.45508 -7.41495,3.6896 -14.94191,7.34312 -22.56836,10.94922 -7.62645,3.6062 -15.35457,7.16541 -23.16992,10.66211 -7.81545,3.49655 -15.71952,6.93197 -23.70117,10.29297 -7.9817,3.36095 -16.04077,6.6465 -24.16602,9.8457 -9.40385,3.7026 -18.90719,7.23285 -28.46484,10.5957 -9.55755,3.3629 -19.16912,6.55946 -28.78907,9.59766 -9.62005,3.0382 -19.24879,5.91803 -28.83984,8.64648 -9.59105,2.7284 -19.14448,5.30463 -28.61523,7.73828 -9.47075,2.4338 -18.85999,4.72491 -28.11914,6.87891 -9.2591,2.1539 -18.38966,4.17145 -27.34571,6.06055 -8.95605,1.8891 -17.73713,3.64976 -26.29883,5.28906 -8.56165,1.6393 -16.90256,3.15615 -24.97851,4.56055 -16.15185,2.80885 -31.2417,5.16379 -44.90235,7.12304 -13.6607,1.9592 -25.89338,3.52441 -36.33203,4.75391 -10.43855,1.2294 -19.08276,2.12269 -25.56836,2.74219 -6.03375,0.5762 -9.73447,0.86928 -11.73632,1.01758 -0.1495,0.0111 -0.75166,0.0672 -0.87696,0.0762 -22.81294,1.636 -46.49124,30.26143 -26.08398,73.55859 21.39206,45.38697 84.38137,54.37601 86.13867,57.27539 l 0.0547,-0.0351 c -4.51088,-5.94724 -8.82115,-12.03842 -12.92383,-18.26368 -2.23759,-3.83954 -4.39816,-7.72181 -6.48047,-11.64453 0.5833,-0.07 11.87796,-1.41649 32.16016,-4.46289 10.39725,-1.5617 22.95043,-3.54104 37.21093,-5.96484 14.26055,-2.4239 30.22935,-5.29256 47.4629,-8.63281 8.61675,-1.6701 17.55074,-3.45789 26.74414,-5.36719 9.19345,-1.9094 18.64663,-3.94035 28.30468,-6.0957 9.65815,-2.1555 19.52136,-4.43741 29.53321,-6.84571 10.01185,-2.4082 20.17143,-4.94343 30.42578,-7.61133 10.25435,-2.66785 20.60273,-5.46814 30.98828,-8.40234 10.38545,-2.9343 20.80949,-6.00344 31.21484,-9.21094 10.40545,-3.20735 20.79337,-6.55176 31.10742,-10.03906 10.31395,-3.4874 20.55467,-7.11657 30.66602,-10.89062 8.63045,-3.2214 17.17579,-6.59797 25.61914,-10.10157 8.44335,-3.50355 16.78531,-7.13593 25.00586,-10.86718 8.22045,-3.7312 16.3193,-7.56245 24.28125,-11.4668 7.96195,-3.9043 15.78733,-7.8813 23.45508,-11.9043 7.66785,-4.02275 15.17948,-8.09088 22.51758,-12.17773 7.33795,-4.0868 14.50201,-8.19277 21.47461,-12.28907 6.97255,-4.09615 13.75276,-8.18337 20.32421,-12.23437 6.5715,-4.0511 12.93371,-8.06628 19.06836,-12.01758 12.26935,-7.90245 23.63091,-15.55051 33.93946,-22.72656 10.30835,-7.17595 19.5647,-13.87968 27.62695,-19.89258 8.06225,-6.01295 14.93004,-11.33475 20.46094,-15.74805 5.53065,-4.41325 9.72515,-7.91792 12.43945,-10.29492 0.1404,-0.12293 0.24752,-0.24622 0.38672,-0.36914 l -0.01,-0.0937 -0.006,-0.33789 -0.002,-0.0801 0.084,0.36328 c 46.55317,-41.14805 32.08019,-82.09825 23.21289,-97.30859 -17.76918,-30.48049 -68.83053,-34.29718 -82.49805,-34.00781 z m 66.34961,236.67578 -1.125,8.67187 c -0.28,2.90757 -0.59838,5.81146 -0.95508,8.71094 -0.19507,1.09015 -0.39559,2.17936 -0.60156,3.26758 l -0.002,0.0156 -0.42187,3.25585 c 0,0 -0.20358,0.15305 -0.20508,0.1543 -0.1479,0.1167 -6.97447,5.51029 -19.10742,14.39649 -6.13135,4.49075 -13.56617,9.83526 -22.07422,15.76171 -8.50795,5.9264 -18.08892,12.43552 -28.51367,19.25782 -10.42485,6.82235 -21.69392,13.95812 -33.57617,21.13672 -5.9411,3.58915 -12.03651,7.18852 -18.25586,10.76562 -6.2193,3.5771 -12.5619,7.13151 -19.00195,10.62891 -6.4401,3.49735 -12.97673,6.93876 -19.58008,10.28906 -6.6033,3.3503 -13.27518,6.61044 -19.98438,9.74609 -6.70915,3.1357 -13.45729,6.14645 -20.21484,9 -6.7576,2.8537 -13.52489,5.55059 -20.27344,8.05469 -13.49715,5.0082 -26.49243,9.63041 -38.98828,13.91211 -12.49585,4.2818 -24.49153,8.22159 -35.98828,11.86719 -11.49675,3.64555 -22.49449,6.996 -32.99414,10.0957 -10.49975,3.0998 -20.50282,5.94965 -30.00782,8.59375 -19.0098,5.2882 -36.03282,9.75642 -51.07617,13.76367 -7.52165,2.0037 -14.54863,3.89204 -21.08203,5.71094 -6.53325,1.8188 -12.57204,3.56672 -18.11914,5.29102 -2.7735,0.86205 -5.67876,1.90146 -8.69336,3.10156 -3.0145,1.2 -6.13821,2.56171 -9.34961,4.07031 -3.21125,1.5085 -6.511,3.16347 -9.875,4.95117 -3.36385,1.7878 -6.79337,3.7085 -10.26562,5.7461 -3.4723,2.03765 -6.98704,4.19297 -10.52344,6.45117 -3.5365,2.2582 -7.09399,4.61896 -10.65039,7.06836 -2.6825,1.8474 -5.35569,3.78887 -8.02734,5.73047 -32.75034,23.80039 -63.99044,54.15554 -76.22852,79.5625 -8.59128,17.83599 -14.69277,34.66255 -5.80859,39.45115 9.14448,4.9288 71.33179,-67.11687 129.57617,-95.86131 0.3997,-0.1973 0.80372,-0.45143 1.20312,-0.64453 4.5067,-2.1798 8.98782,-4.0938 13.41602,-5.6875 2.2141,-0.7969 4.41511,-1.51328 6.59961,-2.14258 2.1845,-0.6294 4.3517,-1.17124 6.5,-1.61914 2.1483,-0.4479 4.27731,-0.80219 6.38281,-1.05469 2.1055,-0.2524 4.18804,-0.40426 6.24414,-0.44726 4.198,-0.0878 10.02343,-0.36808 17.17578,-0.86328 7.1525,-0.4952 15.63143,-1.20534 25.14258,-2.14844 9.51115,-0.9432 20.05398,-2.11928 31.32813,-3.55078 11.2742,-1.4316 23.2811,-3.11773 35.72265,-5.07813 12.44155,-1.9605 25.31893,-4.19676 38.33203,-6.72656 6.5066,-1.2649 13.04619,-2.60268 19.58399,-4.01758 6.53785,-1.4148 13.07376,-2.90676 19.56836,-4.47656 6.49455,-1.5699 12.94932,-3.21737 19.32617,-4.94727 6.37695,-1.7299 12.67472,-3.5425 18.85937,-5.4375 6.1848,-1.89505 12.25578,-3.8723 18.17383,-5.9375 5.9182,-2.06525 11.68467,-4.21848 17.26172,-6.45898 5.577,-2.2405 11.50828,-4.67829 17.70508,-7.30469 6.19675,-2.6264 12.65857,-5.43984 19.29492,-8.43359 6.63625,-2.9938 13.4482,-6.16717 20.34375,-9.50977 6.89555,-3.34265 13.87496,-6.85634 20.84961,-10.52929 6.97465,-3.6731 13.94491,-7.50524 20.81836,-11.49024 1.9593,-1.1358 3.82793,-2.37496 5.76953,-3.53516 72.98676,-43.61447 132.12621,-104.20787 66.39258,-170.57812 z" /><path
     id="path23-15"
     style="fill:#000000;fill-opacity:1;stroke:none;stroke-width:5.1582;stroke-linejoin:round;stroke-miterlimit:0;stroke-dasharray:none;stroke-opacity:1;paint-order:fill markers stroke"
     d="m 600,261.92286 a 344.60056,338.0773 0 0 0 -24.58398,0.86132 344.60056,338.0773 0 0 0 -24.45899,2.58008 344.60056,338.0773 0 0 0 -24.20898,4.28516 344.60056,338.0773 0 0 0 -0.51563,0.1289 c 0.7269,0.32862 1.45686,0.65488 2.16016,1.00977 1.0001,0.50471 1.97693,1.03494 2.92773,1.59375 0.9509,0.55881 1.87559,1.14572 2.77539,1.75977 0.8999,0.61404 1.774,1.25538 2.6211,1.92578 0.8471,0.6704 1.66638,1.36977 2.45898,2.09765 0.7926,0.72789 1.55852,1.48499 2.29492,2.27149 0.7364,0.7865 1.44465,1.60298 2.12305,2.44922 0.6783,0.84624 1.32661,1.72179 1.94531,2.6289 0.6186,0.90711 1.2066,1.84535 1.76367,2.81446 0.5572,0.96907 1.08423,1.96972 1.57813,3.00195 0.4939,1.03223 0.93382,2.04818 1.32422,3.05078 0.3903,1.0026 0.73078,1.99191 1.02148,2.96484 0.2906,0.97294 0.53187,1.9298 0.72657,2.87305 0.1948,0.94325 0.34261,1.87163 0.44531,2.78516 0.1028,0.91353 0.15923,1.81348 0.17383,2.69726 0.014,0.88379 -0.012,1.75146 -0.082,2.60547 -0.07,0.85401 -0.18173,1.69337 -0.33203,2.51758 -0.1502,0.82421 -0.3395,1.63335 -0.5664,2.42773 -0.2269,0.79438 -0.49132,1.5734 -0.79102,2.33789 -0.2997,0.76453 -0.6353,1.5154 -1.0039,2.25 -0.3686,0.73464 -0.77128,1.45349 -1.20508,2.15821 -0.4337,0.70471 -0.89758,1.39554 -1.39258,2.07031 -0.9901,1.34954 -2.09855,2.63759 -3.31055,3.86719 -1.212,1.22959 -2.52854,2.40035 -3.93164,3.50976 -1.4032,1.10942 -2.89343,2.15748 -4.45703,3.14649 -1.5636,0.98901 -3.19938,1.91873 -4.89258,2.78711 -1.6933,0.86838 -3.44413,1.67633 -5.23633,2.42382 -1.79207,0.74751 -3.62605,1.43413 -5.48632,2.06055 -1.8603,0.62643 -3.74694,1.19216 -5.64454,1.69727 -1.89757,0.50511 -3.80673,0.95042 -5.71093,1.33398 -1.9042,0.38357 -3.8035,0.70501 -5.6836,0.9668 -1.87997,0.26179 -3.73935,0.46373 -5.56445,0.60351 -1.8251,0.13979 -3.73085,0.21387 -5.70312,0.23047 -1.9724,0.0166 -4.01283,-0.0239 -6.10743,-0.11523 -2.09447,-0.0913 -4.24407,-0.23398 -6.43554,-0.41797 -2.1916,-0.18399 -4.42413,-0.41049 -6.6875,-0.67188 -4.5268,-0.52277 -9.17267,-1.18491 -13.83594,-1.92578 -4.6634,-0.74086 -9.34476,-1.55963 -13.94336,-2.39648 -9.19727,-1.67371 -18.06355,-3.41701 -25.79492,-4.74219 -3.8658,-0.66259 -7.44909,-1.22095 -10.64649,-1.61328 -1.59867,-0.19617 -3.10014,-0.35132 -4.49414,-0.45703 -1.3939,-0.10571 -2.67975,-0.16211 -3.84375,-0.16211 -1.164,0 -2.31582,0.076 -3.45312,0.2168 -1.1373,0.14084 -2.26074,0.34647 -3.36524,0.60937 -1.1045,0.26291 -2.19036,0.58303 -3.25586,0.94922 -1.06557,0.36619 -2.11048,0.77782 -3.13085,1.22852 -0.4343,0.19182 -0.84609,0.41443 -1.27149,0.61914 a 344.60056,338.0773 0 0 0 -10.97851,8.68164 344.60056,338.0773 0 0 0 -18.00391,16.44531 344.60056,338.0773 0 0 0 -16.76172,17.66211 344.60056,338.0773 0 0 0 -14.8457,18.12305 344.60056,338.0773 0 0 0 -13.54102,19.08007 c 1.1123,0.004 2.45163,-0.0453 4.01563,-0.14843 1.56397,-0.10312 3.35258,-0.26052 5.36328,-0.47266 4.08737,-0.43126 9.04594,-1.08117 14.75781,-1.94141 5.71177,-0.86019 12.1768,-1.93025 19.2793,-3.20312 7.10247,-1.27288 14.84219,-2.74878 23.10156,-4.41797 8.25927,-1.66918 17.04006,-3.53287 26.22266,-5.58203 9.18257,-2.04916 18.7666,-4.28446 28.63867,-6.69727 9.87197,-2.41276 20.0316,-5.00163 30.35937,-7.76171 10.32767,-2.76011 20.82523,-5.69017 31.375,-8.78126 5.2748,-1.54552 10.56324,-3.13241 15.84961,-4.75781 5.2864,-1.62539 10.57085,-3.28932 15.83985,-4.99219 5.26897,-1.70284 10.52184,-3.44439 15.74414,-5.22265 5.22237,-1.77827 10.41427,-3.59332 15.56054,-5.44531 5.1462,-1.85203 10.24807,-3.74056 15.28907,-5.66407 5.04087,-1.92347 10.02103,-3.88198 14.92773,-5.875 4.9066,-1.99298 9.73767,-4.02141 14.48047,-6.08203 4.74267,-2.06061 9.39719,-4.15349 13.94726,-6.27929 4.5502,-2.12584 8.99808,-4.28347 13.32618,-6.47266 4.32807,-2.18919 8.53638,-4.40966 12.61328,-6.66016 4.07677,-2.25045 8.02206,-4.53207 11.81836,-6.84179 3.79637,-2.30977 7.44494,-4.64864 10.93164,-7.01563 3.48657,-2.36699 6.81131,-4.76142 9.95898,-7.18359 1.5738,-1.21109 3.10419,-2.42957 4.58789,-3.6543 1.4837,-1.22473 2.92075,-2.4557 4.31055,-3.69336 1.3898,-1.23765 2.73124,-2.48215 4.02344,-3.73242 1.2923,-1.25027 2.53546,-2.50633 3.72656,-3.76953 1.1847,-1.25642 2.31844,-2.52005 3.39844,-3.78906 1.0801,-1.26905 2.10638,-2.54354 3.08008,-3.82422 a 344.60056,338.0773 0 0 0 -13.97852,-3.79297 344.60056,338.0773 0 0 0 -16.50391,-3.63672 344.60056,338.0773 0 0 0 -16.66406,-2.83594 344.60056,338.0773 0 0 0 -16.78711,-2.03125 344.60056,338.0773 0 0 0 -16.86719,-1.2207 A 344.60056,338.0773 0 0 0 600,261.92286 Z m -95.3418,30.29882 a 5.260211,5.260211 0 0 0 -5.25976,5.25977 5.260211,5.260211 0 0 0 5.25976,5.25976 5.260211,5.260211 0 0 0 5.25977,-5.25976 5.260211,5.260211 0 0 0 -5.25977,-5.25977 z m 291.33203,29.81836 c -1.29717,2.37721 -2.66853,4.72044 -4.11523,7.0293 -1.4633,2.33517 -3.00113,4.63561 -4.61133,6.90234 -3.22027,4.53355 -6.7284,8.93205 -10.5,13.20118 -3.77147,4.26908 -7.80568,8.40888 -12.08008,12.42578 -4.27437,4.01686 -8.7889,7.91063 -13.51757,11.6875 -4.7288,3.77683 -9.67197,7.43731 -14.80664,10.98633 -5.1346,3.54901 -10.46103,6.98691 -15.95313,10.32031 -5.49207,3.33335 -11.1501,6.56341 -16.95117,9.69336 -5.801,3.12991 -11.74517,6.16091 -17.80664,9.09961 -6.0615,2.93865 -12.2401,5.78527 -18.51367,8.54492 -6.2735,2.75964 -12.64106,5.43261 -19.07813,8.02539 -6.43707,2.59278 -12.94392,5.10485 -19.49609,7.54297 -6.5522,2.43812 -13.15076,4.80205 -19.76953,7.09765 -13.23767,4.5913 -26.55997,8.90933 -39.77344,13.00391 -13.21337,4.09458 -26.31767,7.96472 -39.11914,11.66016 -17.75794,5.12621 -35.25066,9.91723 -52.26563,14.37695 -17.01494,4.45967 -33.5523,8.5882 -49.40234,12.38867 -15.85004,3.8005 -31.01215,7.27318 -45.27539,10.42188 -14.26317,3.14867 -27.62837,5.97421 -39.88281,8.47851 -24.50884,5.0085 -44.57932,8.73614 -58.52149,11.21094 -13.27484,2.3564 -20.00634,3.40803 -20.71484,3.51953 a 344.60056,338.0773 0 0 0 -4.92969,22.23047 344.60056,338.0773 0 0 0 -3.50781,48.11328 344.60056,338.0773 0 0 0 3.50781,48.11328 344.60056,338.0773 0 0 0 4.89063,22.05274 c 2.00187,-0.1483 5.70255,-0.44138 11.73632,-1.01758 6.4856,-0.6195 15.12979,-1.51279 25.56836,-2.74219 10.43867,-1.2295 22.67129,-2.79471 36.33203,-4.75391 13.66067,-1.95927 28.75048,-4.31417 44.90235,-7.12304 8.07597,-1.4044 16.41684,-2.92125 24.97851,-4.56055 8.5617,-1.6393 17.34276,-3.39996 26.29883,-5.28906 8.95607,-1.8891 18.08661,-3.90665 27.34571,-6.06055 9.25917,-2.154 18.64837,-4.44511 28.11914,-6.87891 9.47077,-2.43367 19.02416,-5.00988 28.61523,-7.73828 9.59107,-2.72847 19.21977,-5.60828 28.83984,-8.64648 9.61997,-3.0382 19.2315,-6.23476 28.78907,-9.59766 9.55767,-3.36287 19.06097,-6.8931 28.46484,-10.5957 8.12527,-3.1992 16.18432,-6.48473 24.16602,-9.8457 7.98167,-3.361 15.8857,-6.7964 23.70117,-10.29297 7.81537,-3.4967 15.54345,-7.05591 23.16992,-10.66211 7.62647,-3.6061 15.15339,-7.25962 22.56836,-10.94922 14.82994,-7.37917 29.21453,-14.89881 43.0625,-22.45508 13.84804,-7.55617 27.15878,-15.14953 39.84375,-22.67383 12.68497,-7.52427 24.74301,-14.98034 36.08398,-22.26367 11.34087,-7.28334 21.96548,-14.39504 31.78125,-21.22851 9.81577,-6.83351 18.824,-13.38978 26.9336,-19.56446 8.09497,-6.16346 15.28923,-11.94317 21.5039,-17.24218 a 344.60056,338.0773 0 0 0 -1.0332,-1.79102 344.60056,338.0773 0 0 0 -9.04883,-14.01953 344.60056,338.0773 0 0 0 -9.73828,-13.56641 344.60056,338.0773 0 0 0 -10.40625,-13.08203 344.60056,338.0773 0 0 0 -11.04687,-12.56445 344.60056,338.0773 0 0 0 -11.66407,-12.01758 344.60056,338.0773 0 0 0 -12.25,-11.44336 344.60056,338.0773 0 0 0 -12.80664,-10.83789 344.60056,338.0773 0 0 0 -13.33398,-10.20898 344.60056,338.0773 0 0 0 -9.28321,-6.41407 z m 140.03711,203.04883 0.006,0.33789 0.01,0.0957 c -0.1389,0.12257 -0.24672,0.24458 -0.38672,0.36718 -2.7143,2.377 -6.90878,5.88165 -12.43945,10.29492 -5.5309,4.4133 -12.39867,9.73508 -20.46094,15.74805 -8.06227,6.0129 -17.31858,12.71661 -27.62695,19.89258 -10.30857,7.17607 -21.67009,14.82409 -33.93946,22.72656 -6.13467,3.9513 -12.49686,7.96648 -19.06836,12.01758 -6.57147,4.051 -13.35164,8.1382 -20.32421,12.23437 -6.9726,4.0963 -14.13664,8.20227 -21.47461,12.28907 -7.3381,4.08687 -14.84971,8.15496 -22.51758,12.17773 -7.66777,4.023 -15.49311,8 -23.45508,11.9043 -7.96197,3.90437 -16.06078,7.7356 -24.28125,11.4668 -8.22057,3.73127 -16.56249,7.36361 -25.00586,10.86718 -8.44337,3.5036 -16.98867,6.88017 -25.61914,10.10157 -10.11137,3.77407 -20.35205,7.40322 -30.66602,10.89062 -10.31407,3.4873 -20.70195,6.83169 -31.10742,10.03906 -10.40537,3.2075 -20.82937,6.27664 -31.21484,9.21094 -10.38557,2.9342 -20.73391,5.73447 -30.98828,8.40234 -10.25437,2.6679 -20.41391,5.20313 -30.42578,7.61133 -10.01187,2.4083 -19.87504,4.69021 -29.53321,6.84571 -9.65807,2.15537 -19.11121,4.1863 -28.30468,6.0957 -9.1934,1.9093 -18.12737,3.69709 -26.74414,5.36719 -17.23357,3.34027 -33.20233,6.20891 -47.4629,8.63281 -14.26054,2.4238 -26.81366,4.40314 -37.21093,5.96484 -20.28224,3.0464 -31.57686,4.39289 -32.16016,4.46289 a 344.60056,338.0773 0 0 0 6.48047,11.64453 344.60056,338.0773 0 0 0 14.0293,19.82422 344.60056,338.0773 0 0 0 15.43554,18.79102 344.60056,338.0773 0 0 0 16.76172,17.66406 344.60056,338.0773 0 0 0 18.00391,16.44531 344.60056,338.0773 0 0 0 19.15429,15.14258 344.60056,338.0773 0 0 0 20.20508,13.76367 344.60056,338.0773 0 0 0 9.94532,5.78907 c 2.67167,-1.9416 5.34484,-3.88307 8.02734,-5.73047 3.5564,-2.4494 7.11389,-4.81016 10.65039,-7.06836 3.5364,-2.2582 7.05114,-4.4135 10.52344,-6.45117 3.47227,-2.0376 6.90175,-3.9583 10.26562,-5.7461 3.364,-1.7877 6.66373,-3.44267 9.875,-4.95117 3.2114,-1.5086 6.33511,-2.87031 9.34961,-4.07031 3.0146,-1.2001 5.91986,-2.23949 8.69336,-3.10156 5.5471,-1.7243 11.58587,-3.47222 18.11914,-5.29102 6.5334,-1.8189 13.56036,-3.70724 21.08203,-5.71094 15.04337,-4.00727 32.06633,-8.47547 51.07617,-13.76367 9.505,-2.6441 19.50805,-5.49395 30.00782,-8.59375 10.49967,-3.0997 21.49737,-6.45013 32.99414,-10.0957 11.49677,-3.6456 23.49241,-7.58539 35.98828,-11.86719 12.49587,-4.2817 25.49111,-8.90391 38.98828,-13.91211 6.74857,-2.5041 13.51584,-5.20099 20.27344,-8.05469 6.75757,-2.85357 13.50567,-5.8643 20.21484,-9 6.7092,-3.13567 13.38108,-6.39579 19.98438,-9.74609 6.60337,-3.3503 13.13998,-6.79169 19.58008,-10.28906 6.44007,-3.4974 12.78265,-7.05181 19.00195,-10.62891 6.21937,-3.5771 12.31476,-7.17645 18.25586,-10.76562 11.88227,-7.1786 23.1513,-14.31435 33.57617,-21.13672 10.42477,-6.8223 20.0057,-13.33142 28.51367,-19.25782 8.50807,-5.92647 15.94285,-11.27094 22.07422,-15.76171 12.13297,-8.8862 18.95952,-14.27979 19.10742,-14.39649 a 344.60056,338.0773 0 0 0 1.23047,-6.69336 344.60056,338.0773 0 0 0 2.62891,-23.99609 344.60056,338.0773 0 0 0 0.8789,-24.11719 344.60056,338.0773 0 0 0 0,-0.01 344.60056,338.0773 0 0 0 0,-0.01 344.60056,338.0773 0 0 0 0,-0.01 344.60056,338.0773 0 0 0 0,-0.0117 344.60056,338.0773 0 0 0 0,-0.0117 344.60056,338.0773 0 0 0 0,-0.01 344.60056,338.0773 0 0 0 0,-0.01 344.60056,338.0773 0 0 0 0,-0.01 344.60056,338.0773 0 0 0 0,-0.01 344.60056,338.0773 0 0 0 0,-0.01 344.60056,338.0773 0 0 0 0,-0.01 344.60056,338.0773 0 0 0 0,-0.0117 344.60056,338.0773 0 0 0 0,-0.01 344.60056,338.0773 0 0 0 0,-0.0117 344.60056,338.0773 0 0 0 0,-0.01 344.60056,338.0773 0 0 0 0,-0.01 344.60056,338.0773 0 0 0 0,-0.01 344.60056,338.0773 0 0 0 0,-0.01 344.60056,338.0773 0 0 0 0,-0.01 344.60056,338.0773 0 0 0 0,-0.01 344.60056,338.0773 0 0 0 0,-0.0117 344.60056,338.0773 0 0 0 0,-0.01 344.60056,338.0773 0 0 0 0,-0.0117 344.60056,338.0773 0 0 0 0,-0.01 344.60056,338.0773 0 0 0 0,-0.01 344.60056,338.0773 0 0 0 0,-0.01 344.60056,338.0773 0 0 0 0,-0.01 344.60056,338.0773 0 0 0 0,-0.01 344.60056,338.0773 0 0 0 0,-0.0117 344.60056,338.0773 0 0 0 0,-0.01 344.60056,338.0773 0 0 0 0,-0.0117 344.60056,338.0773 0 0 0 0,-0.01 344.60056,338.0773 0 0 0 0,-0.01 344.60056,338.0773 0 0 0 0,-0.01 344.60056,338.0773 0 0 0 0,-0.01 344.60056,338.0773 0 0 0 0,-0.01 344.60056,338.0773 0 0 0 0,-0.0117 344.60056,338.0773 0 0 0 0,-0.01 344.60056,338.0773 0 0 0 0,-0.01 344.60056,338.0773 0 0 0 0,-0.0117 344.60056,338.0773 0 0 0 0,-0.01 344.60056,338.0773 0 0 0 0,-0.01 344.60056,338.0773 0 0 0 0,-0.01 344.60056,338.0773 0 0 0 0,-0.01 344.60056,338.0773 0 0 0 0,-0.0117 344.60056,338.0773 0 0 0 0,-0.01 344.60056,338.0773 0 0 0 0,-0.01 344.60056,338.0773 0 0 0 0,-0.01 344.60056,338.0773 0 0 0 0,-0.01 344.60056,338.0773 0 0 0 0,-0.01 344.60056,338.0773 0 0 0 0,-0.01 344.60056,338.0773 0 0 0 0,-0.01 344.60056,338.0773 0 0 0 0,-0.0137 344.60056,338.0773 0 0 0 0,-0.01 344.60056,338.0773 0 0 0 0,-0.01 344.60056,338.0773 0 0 0 0,-0.01 344.60056,338.0773 0 0 0 0,-0.01 344.60056,338.0773 0 0 0 0,-0.0117 344.60056,338.0773 0 0 0 0,-0.01 344.60056,338.0773 0 0 0 0,-0.01 344.60056,338.0773 0 0 0 0,-0.0117 344.60056,338.0773 0 0 0 0,-0.01 344.60056,338.0773 0 0 0 0,-0.01 344.60056,338.0773 0 0 0 0,-0.01 344.60056,338.0773 0 0 0 0,-0.01 344.60056,338.0773 0 0 0 0,-0.01 344.60056,338.0773 0 0 0 0,-0.01 344.60056,338.0773 0 0 0 0,-0.01 344.60056,338.0773 0 0 0 0,-0.01 344.60056,338.0773 0 0 0 0,-0.0117 344.60056,338.0773 0 0 0 0,-0.01 344.60056,338.0773 0 0 0 0,-0.0117 344.60056,338.0773 0 0 0 0,-0.01 344.60056,338.0773 0 0 0 0,-0.01 344.60056,338.0773 0 0 0 0,-0.01 344.60056,338.0773 0 0 0 0,-0.0117 344.60056,338.0773 0 0 0 0,-0.01 344.60056,338.0773 0 0 0 0,-0.0117 344.60056,338.0773 0 0 0 0,-0.01 344.60056,338.0773 0 0 0 0,-0.01 344.60056,338.0773 0 0 0 0,-0.01 344.60056,338.0773 0 0 0 0,-0.0117 344.60056,338.0773 0 0 0 0,-0.01 344.60056,338.0773 0 0 0 0,-0.0117 344.60056,338.0773 0 0 0 0,-0.0117 344.60056,338.0773 0 0 0 0,-0.01 344.60056,338.0773 0 0 0 0,-0.01 344.60056,338.0773 0 0 0 0,-0.01 344.60056,338.0773 0 0 0 0,-0.01 344.60056,338.0773 0 0 0 0,-0.01 344.60056,338.0773 0 0 0 0,-0.01 344.60056,338.0773 0 0 0 0,-0.0117 344.60056,338.0773 0 0 0 0,-0.0137 344.60056,338.0773 0 0 0 0,-0.01 344.60056,338.0773 0 0 0 0,-0.01 344.60056,338.0773 0 0 0 0,-0.01 344.60056,338.0773 0 0 0 0,-0.01 344.60056,338.0773 0 0 0 0,-0.01 344.60056,338.0773 0 0 0 0,-0.01 344.60056,338.0773 0 0 0 0,-0.01 344.60056,338.0773 0 0 0 0,-0.01 344.60056,338.0773 0 0 0 0,-0.0137 344.60056,338.0773 0 0 0 0,-0.0117 344.60056,338.0773 0 0 0 0,-0.01 344.60056,338.0773 0 0 0 0,-0.01 344.60056,338.0773 0 0 0 0,-0.01 344.60056,338.0773 0 0 0 0,-0.01 344.60056,338.0773 0 0 0 0,-0.01 344.60056,338.0773 0 0 0 0,-0.01 344.60056,338.0773 0 0 0 0,-0.0117 344.60056,338.0773 0 0 0 0,-0.01 344.60056,338.0773 0 0 0 0,-0.0117 344.60056,338.0773 0 0 0 0,-0.01 344.60056,338.0773 0 0 0 0,-0.01 344.60056,338.0773 0 0 0 0,-0.01 344.60056,338.0773 0 0 0 0,-0.01 344.60056,338.0773 0 0 0 0,-0.01 344.60056,338.0773 0 0 0 0,-0.0117 344.60056,338.0773 0 0 0 0,-0.01 344.60056,338.0773 0 0 0 0,-0.0117 344.60056,338.0773 0 0 0 0,-0.01 344.60056,338.0773 0 0 0 0,-0.0117 344.60056,338.0773 0 0 0 0,-0.01 344.60056,338.0773 0 0 0 0,-0.01 344.60056,338.0773 0 0 0 0,-0.01 344.60056,338.0773 0 0 0 0,-0.0117 344.60056,338.0773 0 0 0 0,-0.01 344.60056,338.0773 0 0 0 0,-0.01 344.60056,338.0773 0 0 0 0,-0.0117 344.60056,338.0773 0 0 0 0,-0.01 344.60056,338.0773 0 0 0 0,-0.01 344.60056,338.0773 0 0 0 0,-0.0117 344.60056,338.0773 0 0 0 0,-0.01 344.60056,338.0773 0 0 0 0,-0.0117 344.60056,338.0773 0 0 0 0,-0.01 344.60056,338.0773 0 0 0 0,-0.01 344.60056,338.0773 0 0 0 0,-0.01 344.60056,338.0773 0 0 0 0,-0.01 344.60056,338.0773 0 0 0 0,-0.01 344.60056,338.0773 0 0 0 0,-0.0117 344.60056,338.0773 0 0 0 0,-0.01 344.60056,338.0773 0 0 0 0,-0.0117 344.60056,338.0773 0 0 0 0,-0.01 344.60056,338.0773 0 0 0 0,-0.01 344.60056,338.0773 0 0 0 0,-0.01 344.60056,338.0773 0 0 0 0,-0.01 344.60056,338.0773 0 0 0 0,-0.0117 344.60056,338.0773 0 0 0 0,-0.01 344.60056,338.0773 0 0 0 0,-0.01 344.60056,338.0773 0 0 0 0,-0.0137 344.60056,338.0773 0 0 0 0,-0.01 344.60056,338.0773 0 0 0 0,-0.01 344.60056,338.0773 0 0 0 0,-0.01 344.60056,338.0773 0 0 0 0,-0.01 344.60056,338.0773 0 0 0 0,-0.01 344.60056,338.0773 0 0 0 0,-0.0117 344.60056,338.0773 0 0 0 0,-0.01 344.60056,338.0773 0 0 0 0,-0.0117 344.60056,338.0773 0 0 0 0,-0.01 344.60056,338.0773 0 0 0 0,-0.0117 344.60056,338.0773 0 0 0 0,-0.01 344.60056,338.0773 0 0 0 0,-0.01 344.60056,338.0773 0 0 0 0,-0.01 344.60056,338.0773 0 0 0 0,-0.01 344.60056,338.0773 0 0 0 0,-0.01 344.60056,338.0773 0 0 0 0,-0.0117 344.60056,338.0773 0 0 0 0,-0.01 344.60056,338.0773 0 0 0 0,-0.01 344.60056,338.0773 0 0 0 0,-0.0117 344.60056,338.0773 0 0 0 0,-0.01 344.60056,338.0773 0 0 0 0,-0.01 344.60056,338.0773 0 0 0 0,-0.01 344.60056,338.0773 0 0 0 0,-0.0117 344.60056,338.0773 0 0 0 0,-0.0117 344.60056,338.0773 0 0 0 0,-0.01 344.60056,338.0773 0 0 0 0,-0.01 344.60056,338.0773 0 0 0 0,-0.01 344.60056,338.0773 0 0 0 0,-0.01 344.60056,338.0773 0 0 0 0,-0.0117 344.60056,338.0773 0 0 0 0,-0.01 344.60056,338.0773 0 0 0 0,-0.01 344.60056,338.0773 0 0 0 0,-0.0137 344.60056,338.0773 0 0 0 0,-0.01 344.60056,338.0773 0 0 0 0,-0.01 344.60056,338.0773 0 0 0 0,-0.01 344.60056,338.0773 0 0 0 0,-0.01 344.60056,338.0773 0 0 0 0,-0.01 344.60056,338.0773 0 0 0 0,-0.01 344.60056,338.0773 0 0 0 0,-0.01 344.60056,338.0773 0 0 0 0,-0.0117 344.60056,338.0773 0 0 0 0,-0.0117 344.60056,338.0773 0 0 0 0,-0.01 344.60056,338.0773 0 0 0 0,-0.01 344.60056,338.0773 0 0 0 0,-0.01 344.60056,338.0773 0 0 0 0,-0.01 344.60056,338.0773 0 0 0 0,-0.01 344.60056,338.0773 0 0 0 0,-0.01 344.60056,338.0773 0 0 0 0,-0.0117 344.60056,338.0773 0 0 0 0,-0.01 344.60056,338.0773 0 0 0 0,-0.0117 344.60056,338.0773 0 0 0 0,-0.01 344.60056,338.0773 0 0 0 0,-0.01 344.60056,338.0773 0 0 0 0,-0.01 344.60056,338.0773 0 0 0 0,-0.01 344.60056,338.0773 0 0 0 0,-0.01 344.60056,338.0773 0 0 0 0,-0.0117 344.60056,338.0773 0 0 0 0,-0.01 344.60056,338.0773 0 0 0 0,-0.01 344.60056,338.0773 0 0 0 0,-0.0117 344.60056,338.0773 0 0 0 0,-0.01 344.60056,338.0773 0 0 0 0,-0.01 344.60056,338.0773 0 0 0 0,-0.01 344.60056,338.0773 0 0 0 0,-0.01 344.60056,338.0773 0 0 0 0,-0.01 344.60056,338.0773 0 0 0 0,-0.0117 344.60056,338.0773 0 0 0 0,-0.01 344.60056,338.0773 0 0 0 0,-0.01 344.60056,338.0773 0 0 0 0,-0.01 344.60056,338.0773 0 0 0 0,-0.0117 344.60056,338.0773 0 0 0 0,-0.01 344.60056,338.0773 0 0 0 0,-0.01 344.60056,338.0773 0 0 0 0,-0.01 344.60056,338.0773 0 0 0 0,-0.0117 344.60056,338.0773 0 0 0 0,-0.01 344.60056,338.0773 0 0 0 0,-0.01 344.60056,338.0773 0 0 0 0,-0.0117 344.60056,338.0773 0 0 0 0,-0.01 344.60056,338.0773 0 0 0 0,-0.01 344.60056,338.0773 0 0 0 0,-0.0117 344.60056,338.0773 0 0 0 0,-0.01 344.60056,338.0773 0 0 0 0,-0.0117 344.60056,338.0773 0 0 0 0,-0.01 344.60056,338.0773 0 0 0 0,-0.01 344.60056,338.0773 0 0 0 0,-0.01 344.60056,338.0773 0 0 0 0,-0.0117 344.60056,338.0773 0 0 0 0,-0.01 344.60056,338.0773 0 0 0 0,-0.01 344.60056,338.0773 0 0 0 0,-0.01 344.60056,338.0773 0 0 0 0,-0.0137 344.60056,338.0773 0 0 0 0,-0.01 344.60056,338.0773 0 0 0 0,-0.01 344.60056,338.0773 0 0 0 0,-0.01 344.60056,338.0773 0 0 0 0,-0.01 344.60056,338.0773 0 0 0 0,-0.01 344.60056,338.0773 0 0 0 0,-0.01 344.60056,338.0773 0 0 0 0,-0.01 344.60056,338.0773 0 0 0 0,-0.0117 344.60056,338.0773 0 0 0 0,-0.0117 344.60056,338.0773 0 0 0 0,-0.01 344.60056,338.0773 0 0 0 0,-0.01 344.60056,338.0773 0 0 0 0,-0.01 344.60056,338.0773 0 0 0 0,-0.01 344.60056,338.0773 0 0 0 0,-0.0117 344.60056,338.0773 0 0 0 0,-0.01 344.60056,338.0773 0 0 0 0,-0.0117 344.60056,338.0773 0 0 0 0,-0.01 344.60056,338.0773 0 0 0 0,-0.01 344.60056,338.0773 0 0 0 0,-0.0117 344.60056,338.0773 0 0 0 0,-0.01 344.60056,338.0773 0 0 0 0,-0.01 344.60056,338.0773 0 0 0 0,-0.01 344.60056,338.0773 0 0 0 0,-0.0117 344.60056,338.0773 0 0 0 0,-0.0117 344.60056,338.0773 0 0 0 0,-0.01 344.60056,338.0773 0 0 0 0,-0.01 344.60056,338.0773 0 0 0 0,-0.01 344.60056,338.0773 0 0 0 0,-0.01 344.60056,338.0773 0 0 0 0,-0.0117 344.60056,338.0773 0 0 0 0,-0.01 344.60056,338.0773 0 0 0 0,-0.01 344.60056,338.0773 0 0 0 0,-0.0137 344.60056,338.0773 0 0 0 0,-0.01 344.60056,338.0773 0 0 0 0,-0.01 344.60056,338.0773 0 0 0 0,-0.01 344.60056,338.0773 0 0 0 0,-0.01 344.60056,338.0773 0 0 0 0,-0.01 344.60056,338.0773 0 0 0 0,-0.01 344.60056,338.0773 0 0 0 0,-0.0117 344.60056,338.0773 0 0 0 0,-0.0137 344.60056,338.0773 0 0 0 0,-0.01 344.60056,338.0773 0 0 0 0,-0.01 344.60056,338.0773 0 0 0 0,-0.01 344.60056,338.0773 0 0 0 0,-0.01 344.60056,338.0773 0 0 0 0,-0.01 344.60056,338.0773 0 0 0 0,-0.01 344.60056,338.0773 0 0 0 0,-0.01 344.60056,338.0773 0 0 0 0,-0.0117 344.60056,338.0773 0 0 0 0,-0.0117 344.60056,338.0773 0 0 0 0,-0.0117 344.60056,338.0773 0 0 0 0,-0.01 344.60056,338.0773 0 0 0 0,-0.01 344.60056,338.0773 0 0 0 0,-0.01 344.60056,338.0773 0 0 0 0,-0.01 344.60056,338.0773 0 0 0 0,-0.01 344.60056,338.0773 0 0 0 0,-0.0117 344.60056,338.0773 0 0 0 0,-0.01 344.60056,338.0773 0 0 0 0,-0.0117 344.60056,338.0773 0 0 0 0,-0.01 344.60056,338.0773 0 0 0 0,-0.01 344.60056,338.0773 0 0 0 0,-0.01 344.60056,338.0773 0 0 0 0,-0.01 344.60056,338.0773 0 0 0 0,-0.01 344.60056,338.0773 0 0 0 0,-0.0117 344.60056,338.0773 0 0 0 0,-0.01 344.60056,338.0773 0 0 0 0,-0.01 344.60056,338.0773 0 0 0 0,-0.0117 344.60056,338.0773 0 0 0 0,-0.01 344.60056,338.0773 0 0 0 0,-0.01 344.60056,338.0773 0 0 0 0,-0.01 344.60056,338.0773 0 0 0 0,-0.01 344.60056,338.0773 0 0 0 0,-0.0117 344.60056,338.0773 0 0 0 0,-0.01 344.60056,338.0773 0 0 0 0,-0.01 344.60056,338.0773 0 0 0 0,-0.01 344.60056,338.0773 0 0 0 0,-0.0117 344.60056,338.0773 0 0 0 0,-0.01 344.60056,338.0773 0 0 0 0,-0.0117 344.60056,338.0773 0 0 0 0,-0.01 344.60056,338.0773 0 0 0 0,-0.0117 344.60056,338.0773 0 0 0 0,-0.01 344.60056,338.0773 0 0 0 0,-0.01 344.60056,338.0773 0 0 0 0,-0.01 344.60056,338.0773 0 0 0 0,-0.01 344.60056,338.0773 0 0 0 0,-0.0117 344.60056,338.0773 0 0 0 0,-0.01 344.60056,338.0773 0 0 0 0,-0.01 344.60056,338.0773 0 0 0 0,-0.0137 344.60056,338.0773 0 0 0 0,-0.01 344.60056,338.0773 0 0 0 0,-0.01 344.60056,338.0773 0 0 0 0,-0.01 344.60056,338.0773 0 0 0 0,-0.01 344.60056,338.0773 0 0 0 0,-0.01 344.60056,338.0773 0 0 0 0,-0.0117 344.60056,338.0773 0 0 0 0,-0.01 344.60056,338.0773 0 0 0 0,-0.0117 344.60056,338.0773 0 0 0 0,-0.01 344.60056,338.0773 0 0 0 0,-0.0117 344.60056,338.0773 0 0 0 0,-0.01 344.60056,338.0773 0 0 0 0,-0.01 344.60056,338.0773 0 0 0 0,-0.01 344.60056,338.0773 0 0 0 0,-0.0117 344.60056,338.0773 0 0 0 0,-0.01 344.60056,338.0773 0 0 0 0,-0.0117 344.60056,338.0773 0 0 0 0,-0.01 344.60056,338.0773 0 0 0 0,-0.01 344.60056,338.0773 0 0 0 0,-0.01 344.60056,338.0773 0 0 0 0,-0.0117 344.60056,338.0773 0 0 0 0,-0.01 344.60056,338.0773 0 0 0 0,-0.01 344.60056,338.0773 0 0 0 0,-0.0117 344.60056,338.0773 0 0 0 0,-0.0117 344.60056,338.0773 0 0 0 0,-0.01 344.60056,338.0773 0 0 0 0,-0.01 344.60056,338.0773 0 0 0 0,-0.01 344.60056,338.0773 0 0 0 0,-0.01 344.60056,338.0773 0 0 0 0,-0.01 344.60056,338.0773 0 0 0 0,-0.0117 344.60056,338.0773 0 0 0 0,-0.01 344.60056,338.0773 0 0 0 0,-0.0117 344.60056,338.0773 0 0 0 0,-0.01 344.60056,338.0773 0 0 0 0,-0.01 344.60056,338.0773 0 0 0 0,-0.01 344.60056,338.0773 0 0 0 0,-0.01 344.60056,338.0773 0 0 0 0,-0.01 344.60056,338.0773 0 0 0 0,-0.01 344.60056,338.0773 0 0 0 0,-0.01 344.60056,338.0773 0 0 0 0,-0.01 344.60056,338.0773 0 0 0 0,-0.0137 344.60056,338.0773 0 0 0 0,-0.01 344.60056,338.0773 0 0 0 0,-0.01 344.60056,338.0773 0 0 0 0,-0.01 344.60056,338.0773 0 0 0 0,-0.01 344.60056,338.0773 0 0 0 0,-0.01 344.60056,338.0773 0 0 0 0,-0.01 344.60056,338.0773 0 0 0 0,-0.01 344.60056,338.0773 0 0 0 0,-0.0117 344.60056,338.0773 0 0 0 0,-0.0117 344.60056,338.0773 0 0 0 0,-0.01 344.60056,338.0773 0 0 0 0,-0.01 344.60056,338.0773 0 0 0 0,-0.01 344.60056,338.0773 0 0 0 0,-0.01 344.60056,338.0773 0 0 0 0,-0.01 344.60056,338.0773 0 0 0 0,-0.01 344.60056,338.0773 0 0 0 0,-0.0117 344.60056,338.0773 0 0 0 0,-0.01 344.60056,338.0773 0 0 0 0,-0.0117 344.60056,338.0773 0 0 0 0,-0.01 344.60056,338.0773 0 0 0 0,-0.01 344.60056,338.0773 0 0 0 0,-0.01 344.60056,338.0773 0 0 0 0,-0.01 344.60056,338.0773 0 0 0 0,-0.01 344.60056,338.0773 0 0 0 0,-0.0117 344.60056,338.0773 0 0 0 0,-0.01 344.60056,338.0773 0 0 0 0,-0.01 344.60056,338.0773 0 0 0 0,-0.0117 344.60056,338.0773 0 0 0 0,-0.01 344.60056,338.0773 0 0 0 0,-0.01 344.60056,338.0773 0 0 0 0,-0.01 344.60056,338.0773 0 0 0 0,-0.01 344.60056,338.0773 0 0 0 0,-0.0117 344.60056,338.0773 0 0 0 0,-0.01 344.60056,338.0773 0 0 0 0,-0.01 344.60056,338.0773 0 0 0 0,-0.0117 344.60056,338.0773 0 0 0 0,-0.01 344.60056,338.0773 0 0 0 0,-0.01 344.60056,338.0773 0 0 0 0,-0.01 344.60056,338.0773 0 0 0 0,-0.01 344.60056,338.0773 0 0 0 0,-0.0117 344.60056,338.0773 0 0 0 0,-0.01 344.60056,338.0773 0 0 0 0,-0.01 344.60056,338.0773 0 0 0 0,-0.01 344.60056,338.0773 0 0 0 0,-0.01 344.60056,338.0773 0 0 0 0,-0.01 344.60056,338.0773 0 0 0 0,-0.0117 344.60056,338.0773 0 0 0 0,-0.01 344.60056,338.0773 0 0 0 0,-0.0117 344.60056,338.0773 0 0 0 0,-0.01 344.60056,338.0773 0 0 0 0,-0.01 344.60056,338.0773 0 0 0 0,-0.01 344.60056,338.0773 0 0 0 0,-0.01 344.60056,338.0773 0 0 0 0,-0.0117 344.60056,338.0773 0 0 0 0,-0.01 344.60056,338.0773 0 0 0 0,-0.01 344.60056,338.0773 0 0 0 0,-0.0137 344.60056,338.0773 0 0 0 0,-0.01 344.60056,338.0773 0 0 0 0,-0.01 344.60056,338.0773 0 0 0 0,-0.01 344.60056,338.0773 0 0 0 0,-0.01 344.60056,338.0773 0 0 0 0,-0.01 344.60056,338.0773 0 0 0 0,-0.0117 344.60056,338.0773 0 0 0 0,-0.01 344.60056,338.0773 0 0 0 0,-0.0117 344.60056,338.0773 0 0 0 0,-0.01 344.60056,338.0773 0 0 0 0,-0.0117 344.60056,338.0773 0 0 0 0,-0.01 344.60056,338.0773 0 0 0 0,-0.01 344.60056,338.0773 0 0 0 0,-0.01 344.60056,338.0773 0 0 0 0,-0.01 344.60056,338.0773 0 0 0 0,-0.01 344.60056,338.0773 0 0 0 0,-0.01 344.60056,338.0773 0 0 0 0,-0.0117 344.60056,338.0773 0 0 0 0,-0.01 344.60056,338.0773 0 0 0 0,-0.0117 344.60056,338.0773 0 0 0 0,-0.01 344.60056,338.0773 0 0 0 0,-0.01 344.60056,338.0773 0 0 0 0,-0.01 344.60056,338.0773 0 0 0 0,-0.01 344.60056,338.0773 0 0 0 0,-0.0137 344.60056,338.0773 0 0 0 0,-0.01 344.60056,338.0773 0 0 0 0,-0.01 344.60056,338.0773 0 0 0 0,-0.01 344.60056,338.0773 0 0 0 0,-0.01 344.60056,338.0773 0 0 0 0,-0.0117 344.60056,338.0773 0 0 0 0,-0.01 344.60056,338.0773 0 0 0 0,-0.01 344.60056,338.0773 0 0 0 0,-0.01 344.60056,338.0773 0 0 0 0,-0.0137 344.60056,338.0773 0 0 0 0,-0.01 344.60056,338.0773 0 0 0 0,-0.01 344.60056,338.0773 0 0 0 0,-0.01 344.60056,338.0773 0 0 0 0,-0.01 344.60056,338.0773 0 0 0 0,-0.01 344.60056,338.0773 0 0 0 0,-0.0117 344.60056,338.0773 0 0 0 0,-0.01 344.60056,338.0773 0 0 0 0,-0.0117 344.60056,338.0773 0 0 0 0,-0.0117 344.60056,338.0773 0 0 0 0,-0.01 344.60056,338.0773 0 0 0 0,-0.01 344.60056,338.0773 0 0 0 0,-0.01 344.60056,338.0773 0 0 0 0,-0.01 344.60056,338.0773 0 0 0 0,-0.01 344.60056,338.0773 0 0 0 0,-0.01 344.60056,338.0773 0 0 0 0,-0.0137 344.60056,338.0773 0 0 0 -0.01,-0.39649 344.60056,338.0773 0 0 0 -0.01,-0.39453 344.60056,338.0773 0 0 0 -0.0117,-0.39453 344.60056,338.0773 0 0 0 -0.01,-0.39648 344.60056,338.0773 0 0 0 -0.0156,-0.39453 344.60056,338.0773 0 0 0 -0.01,-0.39454 344.60056,338.0773 0 0 0 -0.01,-0.39453 344.60056,338.0773 0 0 0 -0.01,-0.39648 344.60056,338.0773 0 0 0 -0.01,-0.39453 344.60056,338.0773 0 0 0 -0.01,-0.39453 344.60056,338.0773 0 0 0 -0.0117,-0.39649 344.60056,338.0773 0 0 0 -0.01,-0.39453 344.60056,338.0773 0 0 0 -0.0176,-0.39453 344.60056,338.0773 0 0 0 -0.0117,-0.39453 344.60056,338.0773 0 0 0 -0.0117,-0.39453 344.60056,338.0773 0 0 0 -0.0117,-0.39649 344.60056,338.0773 0 0 0 -0.0156,-0.39453 344.60056,338.0773 0 0 0 -0.0137,-0.39453 344.60056,338.0773 0 0 0 -0.0195,-0.39453 344.60056,338.0773 0 0 0 -0.0137,-0.39649 344.60056,338.0773 0 0 0 -0.0156,-0.39453 344.60056,338.0773 0 0 0 -0.0156,-0.39453 344.60056,338.0773 0 0 0 -0.0176,-0.39453 344.60056,338.0773 0 0 0 -0.0176,-0.39453 344.60056,338.0773 0 0 0 -0.0195,-0.39453 344.60056,338.0773 0 0 0 -0.0176,-0.39453 344.60056,338.0773 0 0 0 -0.0156,-0.39649 344.60056,338.0773 0 0 0 -0.0195,-0.39453 344.60056,338.0773 0 0 0 -0.0234,-0.39453 344.60056,338.0773 0 0 0 -0.0176,-0.39453 344.60056,338.0773 0 0 0 -0.0195,-0.39453 344.60056,338.0773 0 0 0 -1.24414,-16.54883 344.60056,338.0773 0 0 0 -2.07227,-16.46875 344.60056,338.0773 0 0 0 -2.89062,-16.34961 344.60056,338.0773 0 0 0 -1.92579,-8.41797 z M 765.27149,682.91504 a 17.089888,17.08989 0 0 1 17.08984,17.08985 17.089888,17.08989 0 0 1 -17.08984,17.08984 17.089888,17.08989 0 0 1 -17.08985,-17.08984 17.089888,17.08989 0 0 1 17.08985,-17.08985 z m 111.50976,118.39453 c -1.9416,1.1602 -3.81023,2.39936 -5.76953,3.53516 -6.87347,3.985 -13.84369,7.81714 -20.81836,11.49024 -6.97467,3.67297 -13.95404,7.18662 -20.84961,10.52929 -6.89557,3.3426 -13.70748,6.51597 -20.34375,9.50977 -6.63637,2.99377 -13.09815,5.80719 -19.29492,8.43359 -6.1968,2.6264 -12.12808,5.06419 -17.70508,7.30469 -5.57707,2.2405 -11.34352,4.39371 -17.26172,6.45898 -5.91807,2.0652 -11.98903,4.04243 -18.17383,5.9375 -6.18467,1.895 -12.4824,3.7076 -18.85937,5.4375 -6.37687,1.7299 -12.8316,3.37737 -19.32617,4.94727 -6.4946,1.5698 -13.03049,3.06176 -19.56836,4.47656 -6.5378,1.4149 -13.07739,2.75268 -19.58399,4.01758 -13.01314,2.5298 -25.89046,4.76606 -38.33203,6.72656 -12.44157,1.9604 -24.44841,3.64653 -35.72265,5.07813 -11.27417,1.4315 -21.81696,2.60758 -31.32813,3.55078 -9.51117,0.9431 -17.99008,1.65324 -25.14258,2.14844 -7.15237,0.4952 -12.97778,0.77548 -17.17578,0.86328 -2.0561,0.043 -4.13864,0.19486 -6.24414,0.44726 -2.1055,0.2525 -4.23451,0.60679 -6.38281,1.05469 -2.1483,0.4479 -4.3155,0.98974 -6.5,1.61914 -2.1845,0.6293 -4.38551,1.34568 -6.59961,2.14258 -4.4282,1.5937 -8.90932,3.5077 -13.41602,5.6875 -0.3994,0.1931 -0.80342,0.44723 -1.20312,0.64453 a 344.60056,338.0773 0 0 0 8.39453,3.41211 344.60056,338.0773 0 0 0 23.33984,7.62109 344.60056,338.0773 0 0 0 23.83399,5.9668 344.60056,338.0773 0 0 0 24.20898,4.28516 344.60056,338.0773 0 0 0 24.45899,2.58007 344.60056,338.0773 0 0 0 24.58398,0.86133 344.60056,338.0773 0 0 0 24.58399,-0.86133 344.60056,338.0773 0 0 0 24.45703,-2.58007 344.60056,338.0773 0 0 0 24.20898,-4.28516 344.60056,338.0773 0 0 0 23.83399,-5.9668 344.60056,338.0773 0 0 0 23.34179,-7.62109 344.60056,338.0773 0 0 0 22.72656,-9.23633 344.60056,338.0773 0 0 0 21.9961,-10.80273 344.60056,338.0773 0 0 0 21.15625,-12.31446 344.60056,338.0773 0 0 0 20.20508,-13.76367 344.60056,338.0773 0 0 0 19.15429,-15.14258 344.60056,338.0773 0 0 0 18.00391,-16.44531 344.60056,338.0773 0 0 0 16.76367,-17.66406 344.60056,338.0773 0 0 0 15.43555,-18.79102 344.60056,338.0773 0 0 0 0.91406,-1.29297 z" /><path
     id="path1-69-9-7"
     style="fill:#ffffff;fill-opacity:1;stroke:none;stroke-width:4.7244;stroke-linejoin:round;stroke-miterlimit:0;stroke-dasharray:none;stroke-opacity:1;paint-order:fill markers stroke"
     d="m 765.27154,682.91505 c -9.43848,1e-5 -17.08988,7.65139 -17.08988,17.08984 0,9.43844 7.6514,17.08983 17.08988,17.08984 9.4384,-3e-5 17.08979,-7.6514 17.08979,-17.08984 0,-9.43844 -7.65139,-17.08982 -17.08979,-17.08984 z" /></svg>
